<svg width="183" height="150" viewBox="0 0 183 150" fill="none" xmlns="http://www.w3.org/2000/svg">
<path d="M71.2369 56.0179C70.6133 55.5665 70.002 55.125 69.366 54.6648C70.2255 53.0058 71.2616 51.5234 72.436 50.1404C76.1283 45.7901 80.6506 42.8016 86.3003 41.7259C98.3554 39.4326 113.194 46.7117 115.118 62.7971C115.917 69.4743 114.561 75.5881 110.303 80.84C105.002 87.3791 98.064 90.3241 89.7185 89.4635C79.4008 88.3989 71.4703 81.09 69.3981 70.9467C68.3904 66.0169 69.0079 61.24 70.9738 56.6273C71.0529 56.4408 71.1344 56.2542 71.2369 56.0179ZM83.5736 62.5906C80.2443 64.8566 78.5068 67.9048 78.5006 71.7974C78.492 77.1886 81.0272 81.1745 85.668 83.7352C90.2236 86.2486 94.9755 86.0509 99.6669 84.1655C107.972 80.8276 112.406 72.3284 111.343 63.4637C109.768 50.332 96.1869 42.0455 83.8811 46.6346C80.1443 48.0275 77.1891 50.4315 74.9972 53.762C75.2639 54.3403 75.5393 54.0318 75.8258 53.8341C81.1445 50.1777 86.8819 48.8197 93.1392 50.8605C101.565 53.609 106.35 62.0322 104.352 70.4356C102.991 76.1626 98.7691 80.1075 93.212 80.6883C89.5876 81.0676 86.341 80.0826 83.7971 77.3528C80.3295 73.633 80.1541 67.8886 83.728 63.2647C83.7872 63.1876 83.8465 63.1117 83.8836 63.0632C83.7675 62.8866 83.6786 62.7511 83.5736 62.5906ZM95.031 72.6045C95.215 72.3608 95.3558 72.1854 95.4855 72.0014C96.7315 70.2341 96.7809 67.9632 95.6152 66.1798C94.4704 64.4288 92.3686 63.5545 90.3063 63.9723C86.8621 64.6688 84.6776 67.9582 85.3531 71.4293C86.0125 74.8145 89.3283 77.0556 92.7341 76.3952C94.3901 76.0743 95.6967 75.1876 96.7266 73.8121C96.1388 73.393 95.6053 73.0137 95.031 72.6045ZM73.9796 73.3495C74.5267 73.1766 74.5353 73.1754 74.5081 72.7115C74.4143 71.0674 74.5884 69.4519 75.0033 67.8588C76.6248 61.6368 81.8027 57.4469 87.9637 57.4494C92.8663 57.4519 96.6994 59.6867 99.8151 63.3605C99.9694 63.542 100.247 63.6179 100.468 63.7423C100.487 63.4923 100.512 63.2423 100.523 62.9923C100.525 62.9351 100.482 62.8767 100.461 62.8182C98.7481 57.8735 93.5504 54.1724 88.018 53.9585C80.4468 53.6662 74.0438 59.0885 73.0658 66.6462C72.7669 68.9457 73.0892 71.1718 73.9796 73.3495Z" fill="black"/>
<path d="M95.0372 96.2775C94.9001 96.1158 94.7939 95.9915 94.6716 95.8472C94.7124 95.785 94.7433 95.7042 94.8001 95.6582C97.0353 93.8014 99.5631 93.4818 102.203 94.4705C104.726 95.4157 106.081 97.403 106.328 100.073C106.642 103.477 104.962 106.262 102.065 107.248C100.003 107.95 97.9614 107.825 96.0399 106.779C92.4463 104.824 91.7387 99.5956 94.6383 96.6606C94.7519 96.5449 94.8729 96.4355 95.0372 96.2775ZM97.1205 98.3768C96.9933 98.4788 96.8685 98.5571 96.7722 98.6616C95.746 99.7796 95.5855 101.094 96.0325 102.478C96.4709 103.836 97.4724 104.621 98.8604 104.854C101.392 105.278 103.284 103.676 103.443 101.007C103.547 99.2722 102.655 97.6704 101.231 97.0349C99.7557 96.3758 97.7935 96.7302 96.6957 97.8694C96.8241 98.0211 96.9513 98.1741 97.1205 98.3768Z" fill="black"/>
<path d="M68.3936 94.1309C70.3546 94.198 72.2959 94.1159 74.1927 94.3709C76.3525 94.6619 77.3997 96.2998 76.9712 98.2623C76.7786 99.1453 76.2809 99.792 75.4313 100.202C75.5239 100.27 75.5795 100.328 75.6474 100.358C76.97 100.946 77.6331 101.996 77.6726 103.422C77.7121 104.857 77.1354 106.003 75.866 106.712C75.4053 106.969 74.8867 107.236 74.3791 107.27C72.4008 107.399 70.4163 107.435 68.3936 107.509C68.3936 103.016 68.3936 98.6602 68.3936 94.1309ZM71.2783 104.86C72.0266 104.86 72.7034 104.902 73.3727 104.849C74.184 104.785 74.6928 104.226 74.7583 103.442C74.8336 102.538 74.4631 101.88 73.6172 101.72C72.8689 101.578 72.0872 101.614 71.2771 101.569C71.2771 101.856 71.2771 102.018 71.2771 102.181C71.2783 103.049 71.2783 103.915 71.2783 104.86ZM71.3055 99.5109C71.9093 99.5109 72.4428 99.542 72.9726 99.5034C73.7481 99.4475 74.2285 98.9264 74.2544 98.1802C74.2816 97.424 73.8469 96.8545 73.0788 96.7699C72.4984 96.7065 71.9069 96.7575 71.3055 96.7575C71.3055 97.6852 71.3055 98.567 71.3055 99.5109Z" fill="black"/>
<path d="M56.0025 94.1084C56.9731 94.1084 57.8696 94.1084 58.8403 94.1084C58.8539 94.331 58.8773 94.5474 58.8773 94.7638C58.8798 97.0384 58.8773 99.3131 58.8823 101.588C58.8835 101.917 58.8971 102.251 58.9428 102.576C59.1391 103.966 60.0764 104.796 61.4521 104.821C62.8105 104.846 63.7848 104.018 64.0022 102.627C64.0627 102.242 64.0713 101.845 64.0726 101.452C64.0788 99.2397 64.075 97.026 64.075 94.8136C64.075 94.5909 64.075 94.3696 64.075 94.1121C65.058 94.1121 65.9719 94.1121 66.8733 94.1121C66.9067 94.1681 66.945 94.2017 66.945 94.2353C66.9499 96.9638 67.0277 99.6961 66.9351 102.422C66.819 105.844 64.1553 107.979 60.7322 107.534C57.7499 107.146 56.0148 105.189 56.0037 102.177C55.9951 99.5121 56.0025 96.8457 56.0025 94.1084Z" fill="black"/>
<path d="M84.9387 103.068C85.0992 103.324 85.2289 103.556 85.3808 103.772C86.0303 104.692 87.1109 105.15 88.058 104.915C88.6249 104.774 89.0237 104.441 89.1485 103.859C89.2769 103.262 89.02 102.787 88.5199 102.491C88.0445 102.21 87.5283 101.997 87.0244 101.768C86.407 101.488 85.7586 101.267 85.1684 100.94C83.6642 100.105 83.048 98.8505 83.2543 97.1778C83.4271 95.7787 84.5077 94.5661 86.0229 94.1781C87.7839 93.7266 89.4634 93.9045 90.9156 95.1009C91.3145 95.4292 91.6022 95.8931 91.9702 96.3308C91.1441 96.9178 90.4081 97.4402 89.6437 97.9824C89.4868 97.761 89.3559 97.5583 89.2077 97.3693C88.6199 96.6144 87.69 96.2463 86.8565 96.5671C86.5045 96.7027 86.1464 97.0609 85.9871 97.4091C85.792 97.8344 86.0439 98.2784 86.4403 98.5234C86.8923 98.802 87.3788 99.0271 87.8654 99.241C88.5977 99.5643 89.3769 99.7957 90.0783 100.175C92.4259 101.442 92.7766 104.719 90.7872 106.519C88.8274 108.292 84.9461 107.973 83.3197 105.89C83.0591 105.556 82.8727 105.166 82.6294 104.765C83.4296 104.177 84.1718 103.632 84.9387 103.068Z" fill="black"/>
<path d="M116.036 102.2C114.154 102.2 112.314 102.2 110.411 102.2C110.411 103.967 110.411 105.672 110.411 107.408C109.433 107.408 108.519 107.408 107.566 107.408C107.566 103.008 107.566 98.6392 107.566 94.2317C110.574 94.2317 113.56 94.2317 116.582 94.2317C116.582 95.1234 116.582 95.9815 116.582 96.908C114.549 96.908 112.527 96.908 110.461 96.908C110.461 97.9502 110.461 98.9265 110.461 99.9624C112.317 99.9624 114.157 99.9624 116.036 99.9624C116.036 100.712 116.036 101.406 116.036 102.2Z" fill="black"/>
<path d="M124.364 107.408C123.374 107.408 122.455 107.408 121.458 107.408C121.458 103.945 121.458 100.482 121.458 96.9553C120.18 96.9553 118.977 96.9553 117.731 96.9553C117.731 96.0151 117.731 95.1408 117.731 94.2292C121.151 94.2292 124.553 94.2292 128 94.2292C128 95.116 128 95.9903 128 96.928C126.801 96.928 125.619 96.928 124.365 96.928C124.364 100.452 124.364 103.915 124.364 107.408Z" fill="black"/>
<path d="M81.6315 107.406C80.6868 107.406 79.773 107.406 78.8135 107.406C78.8135 103.025 78.8135 98.654 78.8135 94.2378C79.7384 94.2378 80.6683 94.2378 81.6315 94.2378C81.6315 98.6316 81.6315 103.001 81.6315 107.406Z" fill="black"/>
</svg>
