<svg width="183" height="150" viewBox="0 0 183 150" fill="none" xmlns="http://www.w3.org/2000/svg">
<path d="M48.8655 74.8641C48.8655 77.9538 46.4388 80.4256 43.4055 80.4256C40.3721 80.4256 37.9454 77.9538 37.9454 74.8641C37.9454 71.7743 40.3721 69.3025 43.4055 69.3025H48.8655V74.8641ZM54.9323 52H48.8655V63.2466C46.8028 63.2466 44.7401 63.2466 43.4055 63.2466C37.0961 63.2466 32 68.4374 32 74.8641C32 81.2907 37.0961 86.4815 43.4055 86.4815C49.7149 86.4815 54.8109 81.2907 54.8109 74.8641C54.8109 71.6507 54.8109 63.2466 54.8109 63.2466L54.9323 52Z" fill="#0E0E0E"/>
<path d="M115.236 80.4255C118.269 80.4255 120.696 77.9537 120.696 74.864C120.696 71.7743 118.269 69.3025 115.236 69.3025C112.202 69.3025 109.776 71.7743 109.776 74.864C109.897 77.9537 112.324 80.4255 115.236 80.4255ZM103.952 74.864C103.952 68.4373 109.048 63.2466 115.357 63.2466C121.667 63.2466 126.763 68.4373 126.763 74.864C126.763 81.2906 121.667 86.4814 115.357 86.4814C109.048 86.4814 103.952 81.2906 103.952 74.864Z" fill="#0E0E0E"/>
<path d="M145.812 74.864C145.812 71.8978 143.385 69.4261 140.473 69.4261C137.561 69.4261 135.134 71.8978 135.134 74.864C135.134 76.3471 135.134 85.987 135.134 85.987C132.101 85.987 129.189 85.987 129.189 85.987C129.189 85.987 129.189 78.0773 129.189 74.864C129.189 68.4373 134.285 63.2466 140.594 63.2466C146.904 63.2466 152 68.4373 152 74.864C152 78.0773 152 85.987 152 85.987C152 85.987 149.088 85.987 146.055 85.987C145.812 85.987 145.812 76.3471 145.812 74.864Z" fill="#0E0E0E"/>
<path d="M89.9981 70.9092C89.1488 70.2912 89.3914 69.3025 90.8475 68.9317C92.6675 68.4374 95.8222 68.8081 98.4915 70.044L101.282 66.0892C100.069 65.1005 97.3995 63.741 93.5168 63.4938C93.5168 63.4938 86.9647 62.6287 84.2954 67.6958C84.2954 67.6958 81.99 72.3922 86.6007 75.3584C89.3914 77.0886 94.2448 77.8302 95.8222 78.5717C97.0355 79.3132 96.6715 80.6727 94.8515 81.0435C91.6968 81.785 87.5714 79.9312 86.2367 78.9425L83.3247 83.0209C85.2661 84.504 87.6928 85.8635 91.5755 86.4814C91.5755 86.4814 97.7635 87.5937 101.161 83.2681C101.768 82.5266 104.558 77.2122 98.9769 74.1225C96.0649 72.5158 91.4541 71.7743 89.9981 70.9092Z" fill="#0E0E0E"/>
<path d="M62.091 90.4363C62.3336 90.5599 65.1243 92.5373 67.7937 92.5373C74.3458 92.6609 74.7098 85.7399 74.7098 84.1332C73.4964 85.4927 70.9484 86.3578 69.371 86.3578C63.0616 86.3578 58.0869 81.4143 58.0869 74.9876C58.0869 71.7743 58.0869 63.741 58.0869 63.741C58.0869 63.741 60.9989 63.741 64.0323 63.741C64.0323 63.741 64.0323 73.6281 64.0323 74.9876C64.0323 77.9538 66.459 80.4255 69.371 80.4255C72.2831 80.4255 74.7098 77.9538 74.7098 74.9876C74.7098 73.7517 74.7098 63.741 74.7098 63.741C77.7431 63.741 80.6552 63.741 80.6552 63.741V74.9876C80.6552 84.9984 81.1405 95.2563 71.5551 97.6045C64.3963 99.3347 59.3003 94.7619 58.9363 94.5147L62.091 90.4363Z" fill="#0E0E0E"/>
</svg>
