<svg width="183" height="150" viewBox="0 0 183 150" fill="none" xmlns="http://www.w3.org/2000/svg">
<path d="M35.57 68.3669C34.558 66.278 31.867 66.1632 29.866 66.1632H22.138C22.046 66.1632 22 66.255 22 66.301V83.7466C22 83.8384 22.046 83.8843 22.138 83.8843H25.496C25.588 83.8843 25.634 83.8384 25.634 83.7466V78.2374C26.968 78.2374 28.578 78.2604 30.602 78.2374C32.626 78.1915 34.788 77.9161 35.708 75.8731C36.237 74.6565 36.237 73.2333 36.237 71.9249C36.237 70.7083 36.099 69.4687 35.57 68.3669ZM32.603 72.866C32.58 73.4628 32.511 74.1974 32.051 74.6335C31.522 75.1385 30.556 75.0697 29.889 75.0926H25.496V69.308H28.118C29.107 69.308 30.211 69.2162 31.177 69.3998C32.81 69.6753 32.626 71.6035 32.603 72.866ZM144.061 68.3669C143.049 66.278 140.358 66.1632 138.357 66.1632H130.629C130.537 66.1632 130.491 66.255 130.491 66.301V83.7466C130.491 83.8384 130.537 83.8843 130.629 83.8843H133.987C134.079 83.8843 134.125 83.8384 134.125 83.7466V78.2374C135.459 78.2374 137.069 78.2604 139.093 78.2374C141.117 78.1915 143.325 77.9161 144.199 75.8731C144.728 74.6565 144.728 73.2333 144.728 71.9249C144.682 70.7083 144.567 69.4687 144.061 68.3669ZM141.048 72.866C141.025 73.4628 140.956 74.1974 140.496 74.6335C139.967 75.1385 139.001 75.0697 138.334 75.0926H133.941V69.308H136.563C137.552 69.308 138.656 69.2162 139.622 69.3998C141.255 69.6753 141.094 71.6035 141.048 72.866ZM51.8769 74.7942C52.4289 73.6465 52.3369 72.1774 52.2909 70.9378C52.2679 69.836 52.0609 68.5964 51.3709 67.7241C50.7039 66.8748 49.7149 66.5075 48.6569 66.3239C46.9779 66.0255 45.1609 66.1632 43.4589 66.1632H37.9389C37.8469 66.1632 37.8009 66.2091 37.8009 66.301V83.7695C37.8009 83.8614 37.8469 83.9073 37.9389 83.9073H41.3199C41.4119 83.9073 41.4579 83.8614 41.4579 83.7695V78.1456H46.4489C48.1279 78.1456 48.5419 79.4311 48.5419 80.8772V83.7695C48.5419 83.8614 48.5879 83.9073 48.6799 83.9073H52.0379C52.1299 83.9073 52.1759 83.8614 52.1759 83.7695C52.1759 82.4152 52.2219 81.0609 52.1529 79.7295C52.1069 78.8802 51.9229 78.0538 51.3709 77.3652C50.9339 76.8372 50.2669 76.5847 49.5999 76.4929C50.0369 76.3551 50.6809 76.1026 50.8189 76.0338C51.3249 75.7124 51.6699 75.2992 51.8769 74.7942ZM48.6569 72.8201C48.6339 73.4858 48.4959 74.2203 47.9209 74.6106C47.3229 75.0008 46.4489 74.9779 45.7589 74.9779H41.3199V69.308C43.2059 69.308 45.1609 69.1703 47.0239 69.3539C47.7139 69.3998 48.2889 69.6523 48.5189 70.3639C48.7719 71.1215 48.7029 72.0167 48.6569 72.8201ZM58.1329 66.1632H54.7749C54.6829 66.1632 54.6369 66.2091 54.6369 66.301V83.7695C54.6369 83.8614 54.6829 83.9073 54.7749 83.9073H58.1099C58.2019 83.9073 58.2709 83.8614 58.2709 83.7695V66.3239C58.2709 66.2321 58.2019 66.1632 58.1329 66.1632ZM77.2228 66.1632H73.8878C73.7958 66.1632 73.7498 66.255 73.7498 66.301V66.3239C73.8418 71.0526 73.9338 75.7354 74.0258 80.487L73.8878 80.2575C73.6118 79.7065 73.3128 79.1556 73.0368 78.6047C72.1858 76.929 71.3348 75.2763 70.4608 73.6006C69.1958 71.1444 67.9538 68.6882 66.6889 66.255C66.6659 66.2091 66.5969 66.1632 66.5739 66.1632H61.0309C60.9389 66.1632 60.8929 66.2091 60.8929 66.301V83.7695C60.8929 83.8614 60.9389 83.9073 61.0309 83.9073H64.3889C64.4809 83.9073 64.5269 83.8614 64.5269 83.7695C64.4349 79.0409 64.2509 69.5605 64.2509 69.5376L65.2169 71.4658C66.0679 73.1415 66.9189 74.8172 67.7929 76.4699C69.0348 78.9261 70.2998 81.3822 71.5418 83.8154C71.5648 83.8614 71.6338 83.9073 71.6568 83.9073H77.2228C77.3148 83.9073 77.3608 83.8614 77.3608 83.7695V66.3239C77.3608 66.2321 77.3148 66.1632 77.2228 66.1632ZM92.1958 66.1632H78.5798C78.4878 66.1632 78.4418 66.2091 78.4418 66.301V69.1703C78.4418 69.2621 78.4878 69.308 78.5798 69.308H83.5478V83.7466C83.5478 83.8384 83.5938 83.8843 83.6858 83.8843H87.0438C87.0668 83.8843 87.0898 83.8843 87.1358 83.8614C87.1588 83.8384 87.2278 83.8154 87.2278 83.7466V69.2851H92.1958C92.2878 69.2851 92.3338 69.2392 92.3338 69.1473V66.278C92.3338 66.2321 92.2648 66.1632 92.1958 66.1632ZM105.628 80.7625H97.0717V76.4011H105.099C105.191 76.4011 105.237 76.3551 105.237 76.2633V73.5088C105.237 73.4169 105.191 73.371 105.099 73.371H97.0717V69.2851H105.536C105.628 69.2851 105.674 69.2392 105.674 69.1473V66.278C105.674 66.1862 105.628 66.1403 105.536 66.1403H93.5528C93.4608 66.1403 93.4148 66.1862 93.4148 66.278V83.7466C93.4148 83.8384 93.4608 83.8843 93.5528 83.8843H105.605C105.697 83.8843 105.743 83.8384 105.743 83.7466V80.8772C105.789 80.8084 105.72 80.7625 105.628 80.7625ZM128.053 66.1632H122.556C122.51 66.1632 122.441 66.1862 122.418 66.278C121.199 69.6294 120.026 73.0037 118.807 76.3551C118.531 77.1356 118.255 77.8702 117.979 78.6506C117.933 78.7654 117.887 78.9031 117.841 79.0179C117.335 77.6636 116.829 76.2633 116.346 74.909L113.195 66.3239C113.172 66.278 113.149 66.2091 113.057 66.2091H107.675C107.583 66.2091 107.537 66.255 107.537 66.3469V83.8154C107.537 83.9073 107.583 83.9532 107.675 83.9532H111.033C111.125 83.9532 111.171 83.9073 111.171 83.8154C111.079 78.949 110.987 74.6335 110.895 69.7671C110.895 69.7671 111.309 70.846 111.493 71.3969C112.137 73.0497 112.758 74.7254 113.402 76.3781L116.208 83.8154C116.231 83.8614 116.254 83.9302 116.346 83.9302H119.359C119.359 83.9302 119.474 83.9073 119.497 83.8154C120.44 81.3593 121.314 78.9031 122.257 76.4699C122.901 74.7942 123.522 73.1185 124.166 71.3969C124.396 70.846 124.58 70.2721 124.81 69.7212C124.833 69.6753 124.833 69.6294 124.856 69.5835C124.764 74.3122 124.672 78.9949 124.58 83.7695C124.58 83.8614 124.626 83.9073 124.718 83.9073H128.076C128.168 83.9073 128.214 83.8614 128.214 83.7695V66.3239C128.191 66.2321 128.122 66.1632 128.053 66.1632ZM158.275 74.2203C156.872 73.4399 154.963 73.4858 153.422 73.371C152.364 73.3251 151.306 73.3251 150.271 73.0497C149.466 72.866 149.305 72.2462 149.282 71.5117C149.259 70.869 149.19 70.0196 149.696 69.5605C150.294 68.9867 151.536 69.0555 152.295 69.0555C153.238 69.0326 154.503 68.8948 155.377 69.308C156.113 69.6753 155.975 70.7312 155.975 71.4199C155.975 71.5117 156.021 71.5576 156.113 71.5576H159.448C159.54 71.5576 159.586 71.5117 159.586 71.4199C159.586 70.2033 159.563 68.9637 158.919 67.8848C158.39 66.9666 157.447 66.4846 156.481 66.255C155.216 65.9566 153.859 66.0025 152.571 66.0025C151.283 66.0025 149.926 66.0025 148.661 66.3239C146.016 66.9896 145.441 69.4917 145.602 71.9478C145.694 73.0956 146.016 74.2892 146.867 75.0926C147.58 75.7813 148.638 76.0338 149.604 76.1715C151.283 76.424 153.008 76.3092 154.71 76.4929C155.515 76.5847 156.044 76.929 156.228 77.7324C156.389 78.444 156.366 79.477 156.044 80.1197C155.722 80.7625 154.825 80.8543 154.204 80.9461C153.146 81.0609 152.042 81.0379 151.007 80.9231C150.294 80.8772 149.512 80.6936 149.259 79.959C149.075 79.4081 149.144 78.7424 149.144 78.1686C149.144 78.0768 149.052 78.0308 149.006 78.0308H145.648C145.556 78.0308 145.51 78.0768 145.51 78.1686C145.51 80.4181 145.786 82.7366 148.224 83.5859C149.374 83.9991 150.708 83.9991 151.95 83.9991C153.33 83.9991 154.71 84.022 156.067 83.8384C157.033 83.7007 157.999 83.4023 158.735 82.7136C159.517 81.9791 159.793 80.9002 159.885 79.8672C160.115 78.0308 160.184 75.2763 158.275 74.2203Z" fill="#0E0E0E"/>
</svg>
