<svg width="183" height="150" viewBox="0 0 183 150" fill="none" xmlns="http://www.w3.org/2000/svg">
<path d="M77.2908 75.3709C77.4633 75.4972 77.3339 75.7078 77.5064 75.792C77.7652 75.7078 77.4633 75.5393 77.5927 75.413C77.8083 75.5393 78.024 75.6657 77.8946 75.2445C77.8083 74.9497 78.1103 74.9918 78.2828 74.9076C78.8867 74.697 79.5337 74.4864 80.0944 74.1916C81.3021 73.5598 82.3373 72.7175 83.1137 71.6224C83.3293 71.3276 83.2862 71.1591 82.9843 70.9907C81.8197 70.3589 80.5688 70.3589 79.3611 70.7801C77.7221 71.3697 76.2987 72.3805 74.9616 73.4756C74.0558 74.1916 73.1069 74.7812 72.158 75.4551C71.5541 75.8763 70.9934 76.3817 70.3464 76.7607C69.0955 77.5188 67.7584 78.1506 66.3782 78.5718C65.7743 78.7824 65.1705 78.9087 64.5666 79.0772C62.9276 79.4562 61.5473 78.6981 60.5984 77.3083C59.9514 76.3817 59.6495 75.413 59.6495 74.3179C59.6495 74.1073 59.6063 73.981 59.3476 73.981C58.9162 73.981 58.4418 73.981 58.0104 73.981C57.6222 73.981 57.4066 74.1073 57.4497 74.5706C57.536 75.4551 57.6222 76.3817 57.4928 77.224C57.4066 77.8558 57.1478 78.4875 56.9753 79.1193C56.7596 79.7511 56.5439 80.4249 56.1557 80.9303C55.2931 82.1517 54.5167 83.4574 53.1364 84.2155C51.9287 84.8894 50.721 85.4369 49.3839 85.7317C48.9094 85.816 48.435 85.8581 48.0036 85.8581C47.8743 85.8581 47.7449 85.8581 47.7017 85.7738C47.4861 85.479 47.2704 85.2684 47.0979 85.816C47.0547 85.9002 46.7959 85.8581 46.6665 85.7738C46.2783 85.4369 45.7607 85.2263 45.3726 84.8473C44.855 84.2997 44.0786 84.0049 43.6041 83.4153C43.2159 82.952 42.7846 82.4887 42.7415 81.8148C42.7415 81.7306 42.7846 81.6042 42.8277 81.52C43.6041 79.8774 44.855 78.7402 46.4077 77.7716C47.6155 77.0556 48.8232 76.3396 50.1172 75.7078C51.5405 74.9918 53.0502 74.4022 54.5598 73.7704C54.8617 73.6441 54.948 73.4756 54.9049 73.1808C54.5598 71.7909 54.0854 70.4853 53.5246 69.1375C52.7482 67.2001 51.8425 65.347 51.368 63.3253C51.2817 62.9042 51.2386 62.5251 51.1523 62.0197C50.5053 62.5672 49.9015 63.1147 49.3408 63.6623C48.0036 65.01 46.5803 66.2735 45.2863 67.6213C44.5099 68.4636 43.6904 69.306 42.8709 70.1483C41.4043 71.6224 39.8516 73.0123 38.2125 74.2758C37.0479 75.2024 35.754 76.0447 34.5894 77.0134C33.7267 77.7716 32.7778 78.3612 31.872 79.0351C30.9231 79.7511 29.8879 80.3828 28.939 81.0988C28.4645 81.4779 26.6098 81.3094 26.0922 80.9725C25.9628 80.8882 25.9628 80.804 26.1354 80.7198C28.0332 79.7511 29.5429 78.2348 31.1388 76.9292C33.2091 75.2445 35.2364 73.4756 37.3067 71.7488C39.5065 69.9799 41.6631 68.1688 43.6904 66.2735C45.3294 64.7573 46.9253 63.2411 48.5212 61.7249C49.5996 60.714 50.6779 59.6611 51.7131 58.6082C52.2307 58.1028 52.4895 57.3868 52.9208 56.7971C53.7834 55.5757 54.7324 54.4386 55.8969 53.512C56.7165 52.8381 56.7165 52.8802 57.536 53.3435C58.3986 53.8489 58.4418 54.3543 57.7948 55.1546C57.1478 55.9127 56.4145 56.5866 55.7244 57.3026C54.301 58.903 53.309 60.7141 53.5246 62.9463C53.654 64.2098 54.1285 65.4312 54.6461 66.5684C55.4656 68.5479 56.3714 70.4853 57.0184 72.549C57.1047 72.8017 57.1478 72.9281 57.4497 72.8438C58.183 72.6754 58.9594 72.549 59.7357 72.4227C59.9945 72.3805 60.1671 72.2963 60.2533 72.0436C60.8572 70.4853 61.8924 69.2217 63.1001 68.1267C64.2215 67.1159 65.4293 66.2735 66.8958 65.7681C67.3702 65.5997 67.7584 65.6418 68.0604 66.1051C68.1898 66.3156 68.4054 66.5262 68.6211 66.6947C69.6563 67.3686 69.6131 68.3373 69.5269 69.3902C69.3975 70.9907 68.1035 71.5803 66.8958 72.2121C65.5587 72.9281 64.0921 73.3914 62.5825 73.7704C62.2806 73.8546 62.0649 74.0231 61.9786 74.2758C61.8061 74.7812 61.6336 75.2866 61.6767 75.8342C61.7198 76.6765 62.2374 77.0977 63.1001 76.8871C65.9037 76.2974 68.4054 75.076 70.7346 73.4335C72.5462 72.2121 74.2715 70.9064 76.1262 69.685C77.2476 68.9269 78.4122 68.2952 79.7493 68.0003C81.5609 67.6213 83.0274 68.1688 84.192 69.5587C84.9684 70.4431 85.3566 71.4118 84.9252 72.5069C84.6233 73.3492 84.0195 74.0652 83.3725 74.7391C82.3804 75.7499 81.0864 76.4659 79.9218 77.2661C79.7062 77.3925 79.4474 77.4346 79.1886 77.5188C79.1023 77.561 78.8435 77.561 78.9298 77.7294C79.0161 77.94 79.1886 77.8979 79.3611 77.8137C79.6199 77.6873 79.8787 77.6031 80.1375 77.4346C81.3452 76.8029 82.5961 76.1711 83.8038 75.4972C84.2351 75.2445 84.7527 75.2445 85.2272 74.9918C85.5291 74.8233 85.6154 74.4443 85.9604 74.4443C86.6505 74.4022 87.1681 73.981 87.7289 73.7704C87.772 73.7283 87.9014 73.7704 87.9445 73.7283C88.2465 73.265 88.8503 73.3492 89.1954 73.0544C89.9286 72.5069 90.7482 72.1278 91.5677 71.7067C92.5597 71.2434 93.5086 70.6958 94.5007 70.2326C94.6732 70.1483 94.8026 70.0641 94.932 69.9377C96.1829 68.5057 97.6494 67.3265 99.2022 66.2314C100.41 65.347 101.704 64.5467 103.041 63.915C104.464 63.2411 105.974 62.862 107.57 62.9884C107.872 63.0305 108.088 63.199 108.303 63.3674C108.519 63.5359 108.691 63.7044 108.907 63.915C109.554 64.5046 109.425 65.5154 108.864 66.1893C107.829 67.4107 106.707 68.5057 105.888 69.8956C105.37 70.7801 104.809 71.6645 104.335 72.5911C103.947 73.3071 103.774 74.1073 103.559 74.8655C103.515 75.076 103.472 75.2866 103.645 75.4551C103.86 75.6236 104.076 75.4972 104.249 75.3709C105.801 74.6549 107.225 73.6862 108.734 72.9281C110.028 72.2963 111.107 71.4118 112.315 70.6958C112.875 70.3589 113.436 69.8114 113.954 69.3481C114.644 68.7163 115.377 68.0425 116.067 67.4107C116.671 66.8211 117.404 66.3156 117.965 65.6839C118.224 65.3891 118.526 65.347 118.828 65.6418C119.345 66.1051 119.863 66.4841 119.776 67.2843C119.733 67.6634 119.561 68.0425 119.388 68.3794C118.612 69.8114 117.749 71.2434 116.93 72.6754C116.757 72.9702 116.671 73.265 116.455 73.4756C116.369 73.5598 116.326 73.6862 116.412 73.7704C116.498 73.8546 116.628 73.8125 116.714 73.7704C117.145 73.5177 117.62 73.265 118.051 73.0123C119.259 72.3805 120.251 71.4961 121.372 70.7801C122.106 70.3168 122.753 69.7271 123.443 69.1796C123.874 68.8006 124.392 68.5479 124.866 68.2109C125.125 68.0425 125.427 68.2952 125.556 68.8427C125.599 68.6742 125.643 68.59 125.686 68.4636C125.772 68.1267 125.772 68.1267 126.074 68.2952C126.203 68.3794 126.203 68.253 126.29 68.253C126.419 68.2109 126.376 68.1267 126.333 68.0425C126.117 67.4949 126.29 67.3265 126.85 67.4107C127.109 67.4528 127.368 67.5792 127.67 67.6213C127.713 67.6213 127.756 67.6634 127.756 67.6634C127.583 68.0846 128.058 68.0003 128.187 68.0846C128.489 68.253 128.576 68.59 128.619 68.8006C128.791 69.4744 129.05 70.1483 128.964 70.8643C128.877 71.6645 128.705 72.3805 128.532 73.1386C128.403 73.6862 128.576 74.2337 128.662 74.7391C128.705 75.076 128.921 75.2445 129.309 75.2024C130.171 75.1182 130.991 74.9076 131.81 74.6549C132.156 74.5706 132.544 74.4443 132.932 74.4443C133.406 74.4443 133.795 74.1916 134.226 74.0231C135.132 73.6441 136.124 73.4756 137.073 73.0965C137.245 73.0123 137.418 72.9281 137.461 72.7596C138.324 70.7801 139.574 69.1375 141.429 67.874C142.119 67.4107 142.723 66.9053 143.499 66.6105C144.535 66.1893 145.527 65.726 146.648 65.726C146.907 65.726 147.166 65.8102 147.425 65.7681C147.511 65.7681 147.64 65.8524 147.64 65.9366C147.554 66.2314 147.813 66.2735 147.985 66.3578C148.244 66.4841 148.201 66.8211 148.072 66.8211C147.77 66.8211 147.554 67.2001 147.209 66.9474C146.993 66.8211 146.778 66.9053 146.648 67.158C146.476 67.5371 146.217 67.8319 145.699 67.9161C144.578 68.0846 143.629 68.6742 142.766 69.3902C142.033 69.9799 141.213 70.5274 140.48 71.2013C140.394 71.2855 140.308 71.3697 140.264 71.454C140.221 71.5382 140.092 71.6645 140.178 71.7488C140.265 71.8751 140.394 71.7909 140.523 71.7488C141.343 71.4118 142.162 71.0328 142.982 70.6958C143.456 70.4853 143.543 70.5274 143.543 71.0749C143.801 70.9907 143.974 70.8643 143.888 70.5695C143.845 70.3168 144.017 70.1904 144.233 70.1483C144.448 70.1062 144.448 70.3168 144.492 70.4431C144.578 70.6537 144.707 70.8222 144.966 70.5695C145.052 70.4853 145.138 70.4431 145.225 70.401C145.699 70.1062 145.699 70.0641 145.268 69.685C145.613 69.6429 146.174 68.8006 146.174 70.022C146.303 69.6008 146.605 69.306 146.691 68.8427C146.907 69.0112 146.907 69.2639 147.123 69.3481C147.338 69.4744 147.252 69.7272 147.166 69.8956C147.079 70.0641 146.778 70.1904 146.648 70.0641C146.476 69.9799 146.432 69.8535 146.346 70.1062C146.303 70.2747 146.346 70.3589 146.519 70.4431C146.734 70.5274 146.907 70.401 147.123 70.3168C147.252 70.2326 147.381 70.0641 147.64 70.2747C146.864 70.738 146.131 71.2434 145.354 71.6224C143.974 72.3384 142.551 73.0123 141.17 73.6862C140.653 73.9389 140.135 74.1495 139.618 74.3601C139.316 74.4443 138.927 74.5706 138.927 74.9497C138.971 75.3709 139.143 75.792 139.618 76.0026C140.178 76.2132 140.782 76.3396 141.386 76.3817C142.464 76.4659 143.543 76.5502 144.664 76.5502C145.785 76.5923 146.907 76.4659 148.072 76.4659C148.719 76.4659 149.452 76.2974 150.142 76.129C150.444 76.0447 150.789 75.9605 151.091 76.1711C151.393 76.3817 151.263 75.9605 151.479 75.9605C152.471 75.8342 153.463 75.5393 154.412 75.5815C154.93 75.5815 155.145 75.2024 155.577 75.2445C155.879 75.2445 156.137 75.5393 156.482 75.3709C156.569 75.3287 156.655 75.5393 156.482 75.6236C156.31 75.7078 156.18 75.792 156.18 76.0026C156.18 76.129 156.224 76.3396 156.396 76.1711C156.569 76.0447 156.612 76.0869 156.612 76.2553C156.569 76.508 156.698 76.4659 156.871 76.4238C156.914 76.4238 156.957 76.508 157 76.5502C156.957 76.5923 156.914 76.6765 156.871 76.6765C156.094 76.8871 155.275 77.0977 154.498 77.3083C154.196 77.3925 154.067 77.7294 153.679 77.6873C153.463 77.6452 153.204 77.94 152.989 77.6873C152.557 78.1085 151.997 77.6452 151.479 77.94C150.746 78.3191 149.84 78.4033 148.977 78.4033C148.33 78.4033 147.726 78.6139 147.123 78.6981C146.648 78.7403 146.174 78.6981 145.656 78.7824C143.888 79.0772 142.119 78.9508 140.394 78.4033C139.057 77.9821 138.28 77.0556 137.892 75.792C137.763 75.3709 137.633 75.413 137.288 75.5393C136.296 75.8342 135.39 76.4238 134.398 76.6344C133.32 76.8871 132.242 77.0977 131.12 77.2661C130.646 77.3504 130.171 77.4346 129.654 77.3083C128.877 77.1398 128.36 76.6765 128.058 76.0026C127.454 74.7391 127.238 73.4335 127.325 72.0436C127.368 71.3276 127.583 70.6116 127.756 69.8956C127.929 69.2639 127.799 69.0954 127.152 69.1796C126.505 69.2639 125.901 69.6008 125.384 69.9377C123.702 71.117 122.235 72.549 120.553 73.7283C119.345 74.5706 118.224 75.5815 116.887 76.2553C116.153 76.5923 115.851 76.508 115.334 75.8763C114.989 75.413 114.816 74.8655 114.644 74.3179C114.557 74.1073 114.773 73.7704 114.946 73.4756C115.075 73.3071 115.248 73.0965 114.989 72.8438C114.859 72.9281 114.902 73.1387 114.73 73.2229C114.601 73.0965 114.687 73.0123 114.73 72.8438C115.118 71.6645 115.722 70.6537 116.369 69.6008C116.412 69.5166 116.455 69.4323 116.498 69.3481C116.542 69.2639 116.585 69.1796 116.455 69.1375C116.412 69.1375 116.326 69.1375 116.283 69.1796C115.938 69.5166 115.506 69.685 115.248 70.1483C115.118 70.3589 114.816 70.3589 114.687 70.5274C113.436 71.9172 111.883 73.0123 110.33 74.1073C108.821 75.1603 107.268 76.129 105.629 76.9713C104.68 77.4767 103.515 77.4767 102.868 76.2974C102.61 75.8342 102.265 75.413 102.092 74.8655C101.92 74.3601 102.049 73.8546 101.92 73.265C101.316 73.6862 100.755 74.0652 100.237 74.4443C99.3316 75.1182 98.4258 75.7499 97.4337 76.2132C96.1397 76.8029 95.4928 76.7186 94.587 75.6657C94.0694 75.0339 93.6812 74.2758 93.1636 73.6019C92.9479 73.3492 92.8185 73.5177 92.6891 73.5598C91.9559 73.9389 91.1795 74.2337 90.4462 74.697C89.7992 75.1182 89.066 75.2866 88.3759 75.6657C87.5563 76.129 86.6506 76.508 85.7879 77.0134C84.5802 77.6873 83.3293 78.3191 82.1216 78.9508C82.0785 78.9508 82.0785 78.993 82.0353 78.993C80.957 79.6668 81.1727 79.5405 81.6472 80.3828C82.5529 81.9412 82.898 83.5837 82.8117 85.3527C82.7686 86.3214 82.6823 87.2901 82.2079 88.1745C82.1216 88.343 82.2079 88.6799 82.0353 88.8063C81.604 89.1432 81.6472 89.6907 81.3021 90.0698C80.957 90.491 80.6982 90.9543 80.31 91.3333C78.8004 93.018 77.032 94.3658 74.9616 95.3766C73.5382 96.0505 72.1148 96.7664 70.5189 96.9349C69.0524 97.0613 67.4996 97.1034 66.335 96.0926C65.2136 95.1239 64.2215 93.9446 64.3078 92.302C64.3509 91.7124 64.5666 91.207 64.8254 90.7016C65.5587 89.2696 66.5507 87.9639 67.629 86.7847C69.57 84.6367 71.7698 82.7835 74.1421 81.0988C75.2204 80.3407 76.2987 79.6247 77.4202 78.9508C77.7652 78.7403 77.7652 78.656 77.4633 78.3612C76.73 77.6873 76.6006 76.7607 76.5575 75.8342C76.5575 75.7499 76.6438 75.5815 76.73 75.6236C76.9457 75.9184 77.0751 75.5815 77.2908 75.3709ZM81.259 84.7209C81.3021 84.1734 81.1727 83.6259 81.1296 83.1204C81.0433 82.1939 80.612 81.3936 79.965 80.7198C79.7493 80.4671 79.5768 80.4671 79.318 80.6355C78.8867 80.8882 78.4553 81.1831 77.9809 81.3936C76.9026 81.899 75.9536 82.5308 75.0047 83.1626C73.3225 84.2997 71.7266 85.6475 70.3895 87.2058C69.7857 87.9218 69.0955 88.5115 68.5348 89.2696C67.9741 90.0698 67.3271 90.8279 66.8526 91.7124C66.335 92.5968 65.9469 93.4813 66.1194 94.5342C66.1625 94.8291 66.2488 95.1239 66.5938 95.2923C67.284 95.5872 68.0172 95.5872 68.7073 95.5029C70.0445 95.3766 71.3816 95.0396 72.6324 94.4921C73.797 93.9867 74.9616 93.3549 76.0399 92.6811C77.377 91.7966 78.5847 90.8279 79.6199 89.6486C80.7845 88.1324 81.2158 86.4898 81.259 84.7209ZM55.1205 75.7078C55.1637 75.3709 55.0343 75.076 55.0343 74.7812C55.0343 74.2758 54.7755 74.3601 54.4736 74.4864C53.6972 74.8655 52.9208 75.2024 52.2307 75.6236C51.4543 76.0869 50.721 76.6765 49.9878 77.2661C49.082 78.0243 48.2193 78.7824 47.2704 79.4562C47.0979 79.5826 46.9685 79.7089 46.8391 79.8774C46.4077 80.5513 45.9333 81.1831 45.4588 81.8569C45.1138 82.3202 45.1569 83.2468 45.6314 83.668C46.1921 84.1313 46.8822 84.047 47.5292 84.0049C48.9094 83.8786 50.1603 83.331 51.3249 82.6572C52.4032 82.0675 53.309 81.2252 53.956 80.1722C54.8618 78.7824 55.2068 77.2661 55.1205 75.7078ZM95.0183 74.1495C95.0614 75.1603 95.1477 75.2445 95.8378 74.8655C98.167 73.6441 100.28 72.17 102.265 70.4853C102.782 70.0641 103.343 69.685 103.688 69.0954C104.335 68.0425 105.025 67.0316 105.715 66.0208C105.801 65.8524 106.06 65.726 105.931 65.5575C105.801 65.3891 105.586 65.5154 105.37 65.5575C103.17 66.2314 101.143 67.2843 99.3316 68.6742C98.1238 69.6008 96.9161 70.5274 96.0103 71.7488C95.4496 72.5911 95.1046 73.4756 95.0183 74.1495ZM63.8334 71.2013C64.7823 70.9486 65.4293 70.5274 66.0763 70.1062C66.5076 69.8114 66.8958 69.4744 67.1546 69.0533C67.1977 68.969 67.3271 68.8427 67.1977 68.7163C67.1114 68.6321 66.982 68.7163 66.8526 68.7585C66.4213 68.8848 66.1194 69.1796 65.7743 69.4323C65.1273 69.8956 64.4372 70.401 63.8334 71.2013Z" fill="#0E0E0E"/>
</svg>
