<svg width="183" height="150" viewBox="0 0 183 150" fill="none" xmlns="http://www.w3.org/2000/svg">
<path d="M81.0444 68.7143H76.5333C73.3298 68.7143 70.7333 71.3044 70.7333 74.5C70.7333 77.6956 73.3298 80.2857 76.5333 80.2857H81.5793C81.9956 80.2857 82.3333 79.9489 82.3333 79.5336V66.2521C82.3366 63.3516 84.6965 61.0026 87.6049 61.0064C89.4905 61.0084 91.2312 62.0164 92.1676 63.6486L97.8 73.4779V66.2521C97.8032 63.3516 100.163 61.0026 103.072 61.0064C104.957 61.0084 106.698 62.0164 107.634 63.6486L113.267 73.4779V61H116.489L117.133 61.6429L117.778 61H121V82.7479C120.997 85.6484 118.637 87.9974 115.728 87.9936C113.843 87.9916 112.102 86.9836 111.166 85.3514L105.533 75.5221V82.7479C105.53 85.6484 103.17 87.9974 100.262 87.9936C98.3761 87.9916 96.6355 86.9836 95.6991 85.3514L90.0667 75.5221V82.7479C90.0667 85.6484 87.7093 88 84.8016 88H76.5333C69.0591 88 63 81.9559 63 74.5C63 67.0441 69.0591 61 76.5333 61H81.0444V64.2143L80.4 64.8571L81.0444 65.5V68.7143Z" fill="#0E0E0E"/>
<path d="M84.8015 84.7857H76.5333C70.848 84.7857 66.2222 80.1713 66.2222 74.5C66.2222 68.8287 70.848 64.2143 76.5333 64.2143H81.0444V65.5H76.5333C71.5582 65.5 67.5111 69.5371 67.5111 74.5C67.5111 79.4629 71.5582 83.5 76.5333 83.5H84.8015C85.2172 83.5 85.5555 83.1625 85.5555 82.7479V66.2521C85.5561 65.707 85.7701 65.1953 86.1561 64.8109C86.5415 64.4277 87.0538 64.2162 87.5984 64.2162C87.5997 64.2162 87.601 64.2162 87.6023 64.2162C88.3285 64.2175 89.0059 64.6084 89.3687 65.2364L99.6166 83.1226C99.7159 83.2949 99.8783 83.419 100.073 83.4711C100.268 83.5231 100.471 83.4968 100.645 83.3965C100.878 83.2628 101.022 83.014 101.023 82.7459V66.2521C101.023 65.707 101.237 65.1953 101.623 64.8109C102.009 64.4277 102.521 64.2162 103.066 64.2162C103.067 64.2162 103.068 64.2162 103.07 64.2162C103.796 64.2175 104.473 64.6084 104.836 65.2364L115.084 83.1226C115.183 83.2949 115.346 83.419 115.54 83.4711C115.735 83.5231 115.938 83.4968 116.112 83.3965C116.345 83.2628 116.489 83.014 116.49 82.7459V61H117.779V82.7479C117.778 83.4736 117.386 84.1493 116.756 84.5112C116.283 84.7831 115.733 84.8551 115.206 84.7137C114.679 84.5723 114.238 84.2348 113.966 83.7636L103.717 65.8767C103.584 65.6472 103.334 65.5026 103.066 65.5026C103.066 65.5026 103.066 65.5026 103.065 65.5026C102.864 65.5026 102.675 65.5804 102.533 65.7218C102.39 65.8639 102.311 66.0522 102.311 66.2534V82.7479C102.31 83.4736 101.918 84.1493 101.288 84.5112C100.815 84.7831 100.265 84.8551 99.7378 84.7137C99.2106 84.5723 98.7705 84.2348 98.4979 83.7636L88.2506 65.8767C88.1178 65.6472 87.8678 65.5026 87.5997 65.5026C87.599 65.5026 87.599 65.5026 87.5984 65.5026C87.3973 65.5026 87.2085 65.5804 87.0661 65.7218C86.9237 65.8639 86.8444 66.0522 86.8444 66.2534V82.7479C86.8444 83.8716 85.928 84.7857 84.8015 84.7857Z" fill="white"/>
</svg>
