<svg width="183" height="150" viewBox="0 0 183 150" fill="none" xmlns="http://www.w3.org/2000/svg">
<path d="M48.2326 78.9264C48.2082 78.9505 48.1837 79.0227 48.1837 79.0467C46.5944 82.0052 43.4647 84.0015 39.9194 84.0015C34.7602 84.0015 30.5303 79.7442 30.5303 74.5008C30.5303 69.2814 34.7602 65 39.9194 65C43.4892 65 46.6189 67.0445 48.2082 70.051C48.2571 70.0991 48.2571 70.1473 48.306 70.2194C48.3304 70.2435 45.2985 72.3841 45.2741 72.336C45.2496 72.2879 45.2496 72.2398 45.2252 72.2158C44.3449 70.0991 42.2911 68.68 39.9194 68.7041C36.7408 68.7281 34.1245 71.3018 34.1245 74.5008C34.1245 77.7238 36.7163 80.3215 39.8949 80.3215C42.1933 80.3215 44.1982 78.9264 45.1029 76.9541C45.1518 76.882 45.1518 76.8339 45.2007 76.7617L48.2326 78.9264Z" fill="#0E0E0E"/>
<path d="M52.1201 65.1826H55.7388V71.8211H65.2502V65.1826H68.8933V83.655H65.2502V75.5493H55.7388V83.655H52.1201C52.1201 83.655 52.1201 65.1826 52.1201 65.1826Z" fill="#0E0E0E"/>
<path d="M119.963 83.655V65.1826H133.093V68.9108H123.631V72.5908H132.384V76.2709H123.631V79.9509H134.438V83.6309H119.963V83.655V83.655Z" fill="#0E0E0E"/>
<path d="M139.579 83.655V65.1826H143.246V79.975H153.467V83.655H139.579Z" fill="#0E0E0E"/>
<path d="M100.214 83.655H100.092H96.522V65.1826H96.7909H101.632L109.676 76.2949V65.1826H113.32V83.655H110.41L100.214 69.7286V83.655Z" fill="#0E0E0E"/>
<path d="M82.696 68.9108L79.493 76.2949H86.0458L82.696 68.9108ZM77.8548 79.975L76.1677 83.655H71.8154L80.1531 65.1826H85.2389L93.6255 83.655H89.2733L87.5862 79.975H77.8548Z" fill="#0E0E0E"/>
</svg>
