<svg width="183" height="150" viewBox="0 0 183 150" fill="none" xmlns="http://www.w3.org/2000/svg">
<path fill-rule="evenodd" clip-rule="evenodd" d="M130.95 62.0317V89H151V84.6644H135.57V77.6075H148.717V73.4242H135.57V66.3673H151V62.0317H130.95ZM111.36 84.6359H105.822V66.3927H111.36C116.835 66.3927 121.274 70.4777 121.274 75.5143C121.27 80.554 116.835 84.6359 111.36 84.6359ZM111.191 62H101.192V88.9968H111.191C119.422 88.9968 125.921 82.9612 125.921 75.5143C125.921 68.0673 119.422 62 111.191 62ZM80.6587 62.0317L68.1724 88.9968H73.2051L75.2549 84.3599H89.0807L91.1306 88.9968H96.1633L83.677 62.0285H80.6587V62.0317ZM82.1643 69.6848L86.9143 80.0719H77.4214L82.1643 69.6848ZM59.4747 62.0317L48.0698 73.6779L36.6685 62.0317H33V89H37.6227V69.6182L48.0698 80.1385L58.517 69.6182V89H63.1397V62.0317H59.4747Z" fill="#0E0E0E"/>
</svg>
