<svg width="209" height="209" viewBox="0 0 209 209" fill="none" xmlns="http://www.w3.org/2000/svg">
<path fill-rule="evenodd" clip-rule="evenodd" d="M111.172 88.116C111.247 91.2961 113.305 92.5836 114.982 92.5078C117.952 92.5078 118.791 88.116 118.334 83.8001C118.105 81.3763 117.344 78.8026 114.448 78.8026C113 78.8026 111.402 80.3171 111.173 81.9827V88.116H111.172ZM108.659 79.3319C107.744 79.3319 105.991 79.5589 105.991 78.1203C105.991 77.2875 106.449 76.9846 106.983 76.9846C108.049 76.9846 109.039 76.9846 110.258 76.9087C110.486 76.9087 110.867 78.1956 111.173 78.1956C111.401 78.1956 112.315 77.211 112.543 77.1351C114.448 76.227 116.2 76.5299 117.724 77.3634C119.476 78.4232 120.619 80.4676 120.847 82.7391C121.456 88.9482 120.161 92.6589 118.028 93.8705C115.59 95.385 113.381 95.0821 111.247 93.7946L111.172 98.4134C112.77 98.4134 115.055 98.0346 115.055 99.5491C115.055 100.307 114.371 100.685 113.837 100.685H106.905C106.447 100.685 105.99 100.155 105.99 99.4738C106.067 98.0352 107.666 98.414 108.657 98.414V79.3319H108.659ZM95.7836 100.686C95.0221 100.686 93.8026 100.383 93.8026 99.5497C93.879 98.2629 94.4884 98.2629 96.2398 98.2629C96.2398 94.7792 96.4682 88.0401 95.9351 86.6015C95.554 85.5417 94.7925 84.7841 92.8878 84.7841C90.9068 84.7841 88.9264 85.9204 89.0021 89.0253L88.9258 98.3387C89.8393 98.3387 91.8967 97.96 91.973 99.3992C91.973 100.307 91.592 100.686 90.8305 100.686H85.6519C85.1945 100.686 83.8235 100.686 83.8235 99.6262C83.7472 98.3393 85.1957 98.1876 86.262 98.2635V85.2381C85.0431 85.2381 83.7484 85.3899 83.6721 84.1024C83.6721 82.3609 85.3478 82.8156 87.7856 82.8156C88.4714 82.8914 88.6235 83.1943 88.9288 84.0272C89.5376 83.7243 89.6146 83.4966 90.4524 83.0432C91.366 82.5885 92.4335 82.2856 93.4234 82.2856C95.1748 82.2856 97.6126 82.2856 98.3754 84.7094C98.8327 85.9963 99.0611 87.4361 99.0611 88.9506V98.2629C100.356 98.2629 101.575 98.187 101.575 99.4745C101.575 100.383 100.966 100.686 99.9753 100.686H95.7836ZM72.9297 98.2629C74.5296 98.187 75.9769 97.203 76.358 95.4615V91.7514C74.3019 91.6755 69.9587 91.8273 70.1877 95.3862C70.3398 97.5812 71.7114 98.3381 72.9297 98.2629ZM77.1201 98.641C74.3019 101.745 67.6742 101.821 67.6742 95.2332C67.6742 91.0691 70.1883 90.2363 74.5302 89.5546C75.7492 89.3276 76.3586 88.7218 76.2823 87.9642C76.2823 85.9204 76.2059 83.9513 73.7681 83.9513C72.8533 83.9513 71.483 83.9513 71.2546 85.3899C71.1782 86.6768 73.0066 88.7218 69.9599 88.7218C69.1221 88.7218 68.36 87.2073 68.36 86.298C68.36 83.1178 71.483 81.9821 73.6918 81.9062C75.2918 81.9062 77.7296 82.058 78.3396 84.2542C79.4059 87.8884 79.0254 93.1135 79.1012 96.8995C79.1775 98.1864 80.5485 97.7323 80.6248 97.1265C80.7775 94.8551 80.4721 93.8711 80.7775 93.4165C81.1585 92.7348 81.4633 92.8859 81.92 92.8859C82.6058 92.8859 82.9863 93.4164 83.0632 94.0223C83.2916 95.8397 83.0632 98.8687 81.92 99.8526C81.539 100.231 80.6254 100.458 80.016 100.458C78.9479 100.458 77.958 100.232 77.1201 98.641ZM127.703 98.2629C129.302 98.187 130.674 97.203 131.13 95.4615V91.7514C128.997 91.6755 124.732 91.8273 124.884 95.3862C125.036 97.5812 126.483 98.3381 127.703 98.2629ZM131.817 98.641C129.075 101.745 122.446 101.821 122.446 95.2332C122.446 91.0691 124.885 90.2363 129.303 89.5546C130.522 89.3276 131.055 88.7218 131.055 87.9642C131.055 85.9204 130.902 83.9513 128.542 83.9513C127.627 83.9513 126.18 83.9513 125.951 85.3899C125.874 86.6768 127.779 88.7218 124.732 88.7218C123.817 88.7218 123.057 87.2073 123.057 86.298C123.057 83.1178 126.18 81.9821 128.465 81.9062C130.063 81.9062 132.502 82.058 133.111 84.2542C134.101 87.8884 133.797 93.1135 133.873 96.8995C133.95 98.1864 135.322 97.7323 135.396 97.1265C135.55 94.8551 135.168 93.8711 135.473 93.4165C135.854 92.7348 136.235 92.8859 136.692 92.8859C137.301 92.8859 137.759 93.4164 137.835 94.0223C138.064 95.8397 137.759 98.8687 136.692 99.8526C136.235 100.231 135.322 100.458 134.711 100.458C133.721 100.458 132.655 100.232 131.817 98.641ZM62.4175 89.3276C62.4175 85.844 61.0465 84.3301 58.9891 84.4053C56.7797 84.3294 55.1797 86.071 55.2567 89.3276H62.4175ZM55.1797 91.8267C55.2561 96.0667 56.8554 98.1876 58.8365 98.1876C60.8175 98.1876 62.3411 96.976 62.4169 95.0074C62.4932 94.4016 63.0263 93.3418 63.7878 93.3418C65.4635 93.3418 65.7689 96.1432 63.9405 98.1882C62.1121 100.233 61.0459 100.687 58.9128 100.687C57.0844 100.687 55.1034 99.9297 53.9608 97.9606C52.7419 95.9914 52.2094 93.4171 52.2094 90.9186C52.2094 85.921 54.8756 81.9827 59.0655 81.9827C63.4074 81.9827 65.3884 86.5262 65.3884 89.707C65.3884 90.7668 65.3884 91.5244 64.8547 91.6003C64.1695 91.9772 58.8371 91.8267 55.1797 91.8267ZM49.8479 95.7638C49.8479 98.7169 48.3243 100.686 45.277 100.686C43.0675 100.686 40.7061 100.004 40.7061 97.2024C40.7061 95.9908 41.2398 95.385 42.5344 95.385C43.9817 95.385 44.2101 96.369 43.9817 97.0506C43.5243 98.641 43.8291 98.4893 45.2006 98.4893C46.9527 98.4893 47.1053 97.4294 47.1053 94.9303L47.1817 79.7107C47.1053 78.8779 46.8012 78.2721 46.3438 78.2721C44.9729 78.2721 44.5155 78.1203 44.5155 77.0598C44.5161 76.0759 45.2019 76 45.887 76H49.8485V95.7638H49.8479ZM157.337 77.8933C157.337 76.7576 159.927 76.9093 161.907 76.9093H162.059C162.287 76.9093 162.439 77.0611 162.516 77.2881C162.593 77.591 162.667 77.8933 162.667 78.1974V97.203C162.667 98.4146 163.049 98.7934 163.582 98.7934H163.431H164.954C165.26 98.7934 165.488 98.9451 165.64 99.1722C165.793 99.3992 165.793 99.3992 165.793 99.6268V99.7027C165.793 100.006 165.716 100.157 165.565 100.384C165.411 100.611 165.183 100.687 164.879 100.687H158.175C157.947 100.687 157.794 100.611 157.641 100.384C157.49 100.233 157.413 100.006 157.337 99.8544V99.7027L157.413 99.8544V99.7027V99.6268C157.49 99.3998 157.564 99.248 157.719 99.0963C157.835 98.9144 158.034 98.8006 158.251 98.7934C159.089 98.7934 159.775 98.9451 160.08 98.1123C160.231 97.8853 160.231 97.5818 160.156 97.203V80.8464C160.156 79.4837 159.698 79.1049 159.014 79.029C157.718 78.9531 157.413 78.8779 157.337 77.8933ZM153.755 97.8082C154.213 97.8082 156.497 97.1265 156.497 98.3375C156.497 99.852 153.222 100.61 152.308 100.61C151.395 100.458 151.546 99.1709 151.546 98.2629C150.48 99.6256 149.107 100.761 146.291 100.687C143.624 100.611 142.405 98.8693 142.024 97.203C141.186 94.0987 141.718 89.4035 141.644 86.2992C141.644 84.9365 141.186 84.9365 140.577 84.8606C139.969 84.8606 139.13 84.6336 139.13 83.9513C139.053 82.8914 140.195 82.9673 141.339 82.9673C141.796 82.9673 142.938 82.8156 144.158 82.9673C144.31 83.1943 144.463 83.422 144.463 83.7249C144.387 86.1487 144.387 92.1302 144.463 95.6885C144.463 98.0352 145.757 98.7175 147.282 98.7175C148.729 98.6416 150.253 97.4306 151.243 96.2949V86.7533C151.243 85.9204 151.32 85.0117 150.862 84.7088C150.177 84.3307 148.425 84.9359 148.349 83.8007C148.349 83.0438 148.577 82.665 149.492 82.665H152.996C153.224 82.665 153.453 82.8168 153.528 83.1197C153.681 83.3467 153.756 83.7255 153.756 84.1036V97.8088H153.755V97.8082Z" fill="black"/>
<path fill-rule="evenodd" clip-rule="evenodd" d="M108.887 100.534C108.277 101.139 107.896 101.897 107.744 102.881C107.516 103.563 107.438 104.471 107.438 105.532C107.438 105.986 107.438 106.365 107.363 106.592C107.211 106.894 106.982 107.121 106.6 107.197C106.296 107.12 106.067 107.12 105.838 106.819L105.61 106.441L104.772 99.3979L108.582 98.8674L108.887 100.534ZM116.505 97.5811L118.942 116.587C119.019 117.268 119.094 117.573 119.248 117.723C119.324 117.874 119.629 118.027 120.086 118.101C120.542 118.178 120.771 118.405 120.848 118.783C120.848 119.161 120.696 119.465 120.467 119.616C120.239 119.766 120.01 119.843 119.933 119.843L112.239 121.13C111.554 121.205 111.173 120.903 111.096 120.371C111.019 119.917 111.248 119.615 111.554 119.464C112.011 119.237 112.315 119.009 112.392 118.782C112.392 118.706 112.392 118.328 112.315 117.646L109.877 98.6404L116.505 97.5811ZM125.494 98.414C125.342 98.2622 125.036 98.1111 124.579 98.1111C124.198 97.9593 123.97 97.7323 123.97 97.2782C123.894 96.8995 124.047 96.6724 124.35 96.4454C124.427 96.2937 124.579 96.2184 124.885 96.2184L132.502 95.0068C133.188 94.9309 133.569 95.1585 133.569 95.7637C133.646 96.1425 133.492 96.5213 133.111 96.673C132.654 96.9001 132.425 97.1277 132.425 97.2788C132.35 97.5059 132.35 97.8094 132.35 98.4146L134.406 114.165C134.482 114.771 134.558 115.075 134.635 115.225C134.786 115.376 135.015 115.528 135.55 115.68C136.005 115.68 136.158 115.982 136.234 116.285C136.311 116.663 136.159 116.967 135.854 117.193L135.321 117.42L127.704 118.632H127.169C126.789 118.556 126.637 118.253 126.56 117.874C126.484 117.495 126.712 117.193 127.018 116.967C127.475 116.74 127.779 116.512 127.779 116.285C127.856 116.209 127.856 115.83 127.779 115.149L125.723 99.5503C125.723 98.9439 125.57 98.5651 125.494 98.414ZM117.952 99.0956L117.724 97.3541L121.608 96.7489L122.523 103.715C122.6 103.867 122.523 104.018 122.446 104.17C122.294 104.473 122.065 104.7 121.761 104.7C121.455 104.777 121.152 104.624 120.998 104.322C120.77 104.17 120.77 103.867 120.541 103.413C120.237 102.429 120.008 101.595 119.703 100.989C119.286 100.224 118.684 99.5732 117.952 99.0956ZM152.766 91.7508L153.604 97.884C153.604 98.3387 153.375 98.5657 152.842 98.6416C152.536 98.7175 152.233 98.5657 152.004 98.0358C150.861 95.6891 149.262 94.4769 146.975 94.4769L146.748 92.7353L152.766 91.7508ZM156.652 92.9624C156.194 92.8106 155.966 92.5836 155.889 92.2048C155.814 91.6743 156.117 91.2967 156.804 91.0691L163.964 89.9328L166.403 109.091C166.479 109.62 166.554 109.924 166.631 110.151C166.783 110.227 167.087 110.455 167.544 110.529C167.925 110.529 168.153 110.833 168.23 111.21C168.307 111.74 168.002 112.12 167.392 112.346L159.698 113.558L159.165 113.482C158.785 113.407 158.556 113.18 158.556 112.8C158.479 112.346 158.631 112.043 159.014 111.816C159.469 111.589 159.698 111.438 159.852 111.211C159.927 111.06 159.852 110.68 159.698 110.075L157.794 94.4004C157.642 93.7952 157.565 93.4923 157.489 93.2647C157.337 93.1135 157.108 93.0382 156.652 92.9624ZM137.529 95.1585C137.378 94.628 137.681 94.2504 138.367 94.0987L145.527 92.963L148.424 115.302L141.264 116.513L140.653 116.437C140.349 116.286 140.196 116.059 140.121 115.68C140.044 115.302 140.272 114.998 140.578 114.771C141.11 114.544 141.339 114.392 141.416 114.165C141.416 114.015 141.416 113.634 141.339 113.029L139.283 97.3547C139.283 96.7495 139.131 96.3707 139.054 96.219C138.903 96.0672 138.597 95.992 138.216 95.8402C137.758 95.7637 137.529 95.5367 137.529 95.1585ZM151.167 99.8532L152.08 106.365V107.122C152.005 107.502 151.852 107.729 151.471 107.804C151.091 107.804 150.71 107.577 150.481 106.895C149.947 105.532 149.187 104.699 148.272 104.623L148.043 102.73C148.958 102.276 149.416 101.368 149.567 99.7773C149.644 99.0956 149.873 98.7175 150.33 98.7175C150.71 98.5657 150.939 98.7175 151.014 99.0962L151.167 99.8532ZM155.128 108.107L155.814 114.164L149.566 115.148L149.415 113.407C150.481 113.103 151.396 112.421 152.081 111.589C152.844 110.68 153.224 109.545 153.453 108.334L153.682 107.652C153.757 107.425 153.91 107.274 154.214 107.274C154.747 107.198 154.975 107.502 155.128 108.107ZM168.001 89.4028C168.991 89.4028 169.906 89.4787 170.667 89.7057C172.572 90.4627 173.715 91.9019 174.096 94.1734C174.324 95.7637 174.02 97.1265 173.258 98.2622C172.496 99.1715 171.43 99.9279 169.983 100.609V100.685C171.506 100.685 172.649 100.912 173.486 101.29C174.476 101.821 175.162 102.88 175.391 104.243L175.771 107.5C175.771 107.65 175.925 107.802 176 107.727C176.151 107.65 176.306 107.574 176.534 107.272C176.685 106.893 176.914 106.741 177.143 106.665C177.294 106.665 177.447 106.742 177.752 106.892C177.903 107.044 177.98 107.196 177.98 107.423C178.055 107.801 177.903 108.256 177.674 108.862C177.37 109.317 177.142 109.771 176.836 110.149C176.075 110.982 175.161 111.511 173.865 111.738C172.571 111.89 171.58 111.587 170.666 110.981C170.133 110.526 169.828 109.997 169.6 109.315C169.373 108.784 169.219 108.179 169.144 107.346L168.838 105.226C168.687 104.318 168.61 103.636 168.381 103.258C168.077 102.576 167.543 102.274 166.782 102.349L166.554 100.531C167.24 100.304 167.695 100.001 167.848 99.4714C168 99.1685 168 98.4868 167.848 97.654L167.391 94.0198C167.314 93.2622 167.085 92.657 166.934 92.3541C166.629 91.9754 166.096 91.6725 165.41 91.5213L165.182 89.7039H165.335L168.001 89.4028ZM106.601 122.039L100.888 122.872L100.736 121.131C102.717 120.526 103.783 118.632 104.011 115.376C104.088 114.771 104.392 114.392 104.926 114.316C105.231 114.316 105.383 114.392 105.535 114.62L105.763 115.377L106.601 122.039ZM45.4289 108.409C45.8863 108.334 46.191 108.636 46.3437 109.318L47.1816 115.982C47.1816 116.663 46.9532 117.118 46.42 117.193C46.039 117.193 45.8106 117.118 45.6579 116.891C45.5053 116.814 45.3532 116.513 45.2769 116.134C44.5917 114.392 43.7538 113.104 42.687 112.195C41.6971 111.438 40.6302 111.06 39.4113 111.211L39.1829 109.394C40.3255 109.394 41.3923 109.394 42.5349 109.545L43.9059 109.772C44.2106 109.772 44.4396 109.545 44.668 109.167C44.8964 108.713 45.1248 108.485 45.4289 108.409ZM61.0464 106.441L67.4457 124.69L67.9031 125.674C68.0557 125.978 68.3605 126.279 68.6652 126.279C69.1989 126.431 69.4273 126.734 69.4273 127.188C69.5036 127.491 69.351 127.718 69.0462 127.945C68.8178 127.945 68.5125 128.098 68.0557 128.172L61.3517 129.232C60.4381 129.384 59.9807 129.157 59.9044 128.627V128.022L60.2855 127.644C60.6665 127.416 60.818 127.112 60.8943 126.962C60.9706 126.735 60.818 126.28 60.6659 125.75L59.8275 123.554L55.866 124.159L56.0187 122.418L59.2943 121.887L54.8749 109.09L54.9512 107.424L61.0464 106.441ZM69.1977 105.077L76.8916 103.866C77.5774 103.79 77.9579 104.093 78.0348 104.699C78.0348 105.001 77.9585 105.381 77.5011 105.532C77.12 105.759 76.8916 105.986 76.8153 106.213C76.739 106.364 76.739 106.743 76.8153 107.273L78.6437 121.736C78.7963 122.418 78.8721 122.948 78.9484 123.175C79.3294 124.084 79.9389 124.613 80.8531 124.764L81.1578 126.505L78.1105 126.809C77.1206 126.809 76.1295 126.582 75.2159 126.204C74.0733 125.75 73.2349 125.218 72.7024 124.613C72.3976 124.084 72.1686 123.402 71.9403 122.569L70.1882 108.409C70.1119 107.804 69.9598 107.349 69.8835 107.274C69.8072 107.122 69.5024 106.97 69.0456 106.895C68.6646 106.819 68.3598 106.592 68.3598 106.214C68.2835 105.835 68.4362 105.532 68.7409 105.305L69.1977 105.077ZM81.9957 105.002L81.3099 104.7C81.0815 104.623 81.0815 104.321 81.0051 104.094C80.9288 103.489 81.3099 103.184 82.2998 103.034L85.3471 102.503H86.1849C86.6423 102.503 86.8707 102.806 86.947 103.185C86.947 103.412 86.8707 103.64 86.6423 103.867L86.0335 104.396C85.4997 104.927 85.1956 105.911 85.1956 107.349L86.7186 118.708C86.795 120.904 86.4139 122.797 85.2713 124.236C84.5092 125.372 83.443 126.053 82.3004 126.28L82.0708 124.539C83.2903 123.932 84.1275 123.098 84.5092 122.266C84.9666 121.358 85.195 120.222 85.0429 118.86L83.5956 107.652C83.2903 106.214 82.7578 105.305 81.9957 105.002ZM90.3748 104.017C90.2221 103.866 89.9174 103.714 89.46 103.639C89.0026 103.563 88.7748 103.336 88.6985 102.957C88.6985 102.352 89.0032 101.973 89.6133 101.822L97.3072 100.61L97.8409 100.685C98.222 100.761 98.3746 100.988 98.4498 101.367C98.5261 101.746 98.2971 102.049 97.916 102.276C97.5356 102.503 97.2308 102.731 97.2308 102.958C97.1545 103.034 97.1545 103.489 97.2308 104.094L99.6693 123.099L92.5079 124.236H91.9741C91.5931 124.085 91.4404 123.858 91.3647 123.479C91.2883 123.099 91.441 122.797 91.8984 122.569C92.2795 122.342 92.5842 122.191 92.6605 121.964C92.7369 121.814 92.6605 121.433 92.5842 120.828L90.6032 105.154C90.4517 104.472 90.4517 104.169 90.3748 104.017ZM54.6471 111.74L55.7903 114.997L54.4956 125.597C54.4193 126.583 54.4193 127.188 54.6483 127.566C54.8767 127.871 55.182 128.098 55.7145 128.323L56.3234 128.552C56.4761 128.703 56.5518 128.93 56.6281 129.157C56.7045 129.536 56.5518 129.838 56.2471 129.914L55.4092 130.218L52.2099 130.671C51.2194 130.824 50.6862 130.671 50.6099 129.991C50.6099 129.687 50.6862 129.46 50.8383 129.309L51.5241 128.855C52.2862 128.249 52.743 127.113 52.8951 125.447L54.5708 111.74H54.6471ZM42.0775 122.871C41.7437 122.718 41.379 122.641 41.0113 122.645C40.4775 122.569 40.2492 122.341 40.2492 121.887C40.1728 121.358 40.4775 120.98 41.1639 120.903L47.7153 119.843C48.3241 119.693 48.6301 119.994 48.7815 120.6C48.7815 120.904 48.6289 121.206 48.4005 121.586C48.1721 121.737 48.0194 121.964 48.0194 122.191V122.494L48.7815 128.476C47.9437 129.536 46.9532 130.52 45.8863 131.279C44.6674 132.036 43.4491 132.491 42.2302 132.718L42.0018 130.976C42.7639 130.598 43.1444 129.916 42.9923 128.856L42.3065 123.48C42.2296 123.099 42.1539 122.948 42.0775 122.871ZM32.4795 114.014C33.8505 111.513 35.6025 110.075 37.964 109.621L38.1924 111.362C37.3545 111.817 37.0498 112.801 37.2025 114.315L39.1072 128.627C39.3356 130.141 39.793 130.975 40.7072 131.202L41.0119 132.943C39.7172 133.094 38.651 132.943 37.5835 132.489C36.441 132.034 35.5268 131.352 34.6126 130.443C32.7079 128.475 31.4896 125.824 31.1843 122.645C30.7269 119.389 31.1073 116.512 32.4795 114.014Z" fill="black"/>
</svg>
