<svg enable-background="new 0 0 150 123" viewBox="0 0 150 123" xmlns="http://www.w3.org/2000/svg"><path d="m130.9 64.6c-.6.5-1.3.7-2.7.7h-.7c-.3 0-.4 0-.8 0 .2-.5.2-.6.3-1.2l1.3-6.6h1c.9 0 1.5.1 1.9.3.8.4 1.2 1.3 1.2 2.7 0 1.7-.6 3.3-1.5 4.1zm-58.5-4.1h-1.9c-.2 0-.3 0-.5.1.1-.3.1-.3.1-.5v-2.3c0-.3 0-.3-.1-.6.2.1.3.1.5.1h1.7c1.3 0 1.9.5 2 1.5.1 1.1-.5 1.7-1.8 1.7zm-25.2.3h-1.6c-.2 0-.3 0-.5.1.1-.3.1-.3.1-.5v-2.4c0-.2 0-.3-.1-.5.2.1.3.1.5.1h1.5c1.2 0 1.8.6 1.8 1.7.1 1-.4 1.5-1.7 1.5zm88.4-4.9c-.8-1.2-1.9-1.8-3.4-2.1-.6-.1-1.6-.1-3.5-.1h-3.9l-3 15.4v-15.4h-4.3-4.3l-1.4 7.3-.2.9-.2 1c-.3 1-.4 1.4-.6 1.8-.4.8-1 1.1-1.9 1.1-1.2 0-1.8-.8-1.7-2 0-.4.1-.6.2-1.5l.1-.3 1.6-8.3h-4.3l-1.7 9c-.3 1.5-.3 1.6-.3 2.5h-5.8c-.2 0-.3 0-.5.1.1-.3.1-.3.1-.5v-11h-4.3-10.8l-2.9 15.1c-.1-.3-.1-.7-.2-1.2 0 0-.1-1.7-.3-2.4-.1-.8-.3-1.4-.6-1.8-.4-.6-.9-1-1.5-1.2v-.1c1.4-.6 2.2-2 2.2-3.9 0-1.5-.7-2.9-2-3.7-.8-.5-1.8-.7-3.4-.7h-7.1-11.5l-1.2 6.1c0-.2 0-.4 0-.7 0-1.9-.7-3.5-2-4.4-.9-.7-2-1-4.3-1h-5.9-4.3l-1.3 7.1-.2 1-.2 1c-.3 1-.4 1.4-.6 1.8-.4.8-1 1.1-1.9 1.1-1.2 0-1.8-.8-1.7-2 0-.4.1-.6.2-1.5l.1-.3 1.6-8.3h-4.3l-1.7 9c-.2.9-.2 1.3-.3 1.6 0-1.6-.6-2.6-1.7-3.5-.7-.6-1.5-.9-3.1-1.4-1.2-.5-1.2-.5-1.3-.5 0 0 0 0-.1 0-.7-.3-1-.3-1.2-.4-.3-.1-.4-.3-.4-.6 0-.7.5-1 1.5-1s1.7.6 1.7 1.5h4c0-3.2-2.1-5-5.6-5-3.4 0-5.7 1.9-5.7 4.8 0 1.3.4 2.4 1.1 3.1s1.5 1.1 3.8 1.8c2.4.8 2.8 1 2.8 1.6 0 .9-.7 1.4-1.9 1.4-1.3-.1-1.9-.6-2-2h-4.3c0 1.2.3 2.2.8 3.1 1 1.6 3 2.5 5.4 2.5 1.9 0 3.3-.4 4.4-1.3 1-.7 1.6-1.9 1.8-3.2v.2c0 2.5 1.8 4.1 5.1 4.3h1c2.9 0 4.9-1.1 6-3.4.4-.9.7-1.6 1-3.6l1.7-8.8v15.4h4.3v-4.3c0-.3 0-.3-.1-.6.2.1.3.1.5.1h2.2c1.8 0 3-.4 3.9-1.4.5-.6.9-1.2 1.1-1.9l-1.6 8.2h11.8l.7-3.9h-6.5c-.6 0-.6 0-1.1 0 .1-.5.2-.6.3-1.2l.2-1.1h6.8l.7-3.6h-5.7c-.6 0-.7 0-1.1.1.1-.4.2-.6.3-1l.2-1h7.3l.7-3.7v15.4h4.2v-5c0-.2 0-.3-.1-.5.2.1.3.1.5.1h1.4c.8 0 1.3.2 1.7.6.4.5.5 1 .7 2.5 0 0 .1 1.7.3 2.3h4 .3 4l1.1-5.6h5.6l.7-3.7h-4.6c-.5 0-.6 0-1.1.1.2-.5.2-.6.3-1.2l.2-1.2h6.6l.7-3.8v15.4h10.5v-3.6c.2 2.2 2 3.7 5 3.9h1c2.9 0 4.9-1.1 6-3.4.4-.9.7-1.6 1-3.6l1.7-8.8v15.4h4.3 6.3c1.8 0 3.1-.2 4.1-.6 1.4-.7 2.6-1.9 3.4-3.4.7-1.3 1.2-3.2 1.2-4.7-.2-2.3-.4-3.6-1.3-4.8z"/></svg>