<svg width="183" height="150" viewBox="0 0 183 150" fill="none" xmlns="http://www.w3.org/2000/svg">
<g clip-path="url(#clip0)">
<path d="M49.8636 69.4685V73.2136H58.7922C58.5189 75.3145 57.8204 76.8521 56.7575 77.933C55.4516 79.2423 53.4168 80.6733 49.8636 80.6733C44.3668 80.6733 40.0695 76.2279 40.0695 70.7168C40.0695 65.2057 44.3668 60.7603 49.8636 60.7603C52.8246 60.7603 54.996 61.9326 56.5904 63.4398L59.2174 60.806C57.0004 58.6442 54.0242 57 49.8636 57C42.332 57 36 63.1505 36 70.7016C36 78.2527 42.332 84.4032 49.8636 84.4032C53.9331 84.4032 57.0004 83.0635 59.3996 80.5668C61.8595 78.1005 62.6339 74.6142 62.6339 71.813C62.6339 70.9452 62.5732 70.1383 62.4365 69.4685H49.8636V69.4685Z" fill="#0E0E0E"/>
<path d="M73.7946 66.4238C68.9203 66.4238 64.9419 70.1385 64.9419 75.269C64.9419 80.3538 68.9203 84.1141 73.7946 84.1141C78.6688 84.1141 82.6472 80.369 82.6472 75.269C82.6472 70.1385 78.6688 66.4238 73.7946 66.4238ZM73.7946 80.6278C71.1221 80.6278 68.814 78.4203 68.814 75.269C68.814 72.0872 71.1221 69.9101 73.7946 69.9101C76.4671 69.9101 78.7751 72.0872 78.7751 75.269C78.7751 78.4203 76.4671 80.6278 73.7946 80.6278Z" fill="#0E0E0E"/>
<path d="M117.193 68.4029H117.056C116.19 67.3677 114.52 66.4238 112.409 66.4238C108.006 66.4238 104.164 70.2755 104.164 75.269C104.164 80.232 108.006 84.1141 112.409 84.1141C114.52 84.1141 116.19 83.1702 117.056 82.1046H117.193V83.3377C117.193 86.7174 115.386 88.5291 112.485 88.5291C110.116 88.5291 108.644 86.824 108.036 85.3777L104.665 86.7783C105.637 89.1228 108.203 92.0002 112.485 92.0002C117.025 92.0002 120.867 89.3207 120.867 82.7896V66.8805H117.193V68.4029ZM112.743 80.6278C110.071 80.6278 108.036 78.3442 108.036 75.269C108.036 72.1481 110.071 69.9101 112.743 69.9101C115.386 69.9101 117.451 72.1937 117.451 75.2994C117.466 78.3899 115.386 80.6278 112.743 80.6278Z" fill="#0E0E0E"/>
<path d="M93.5353 66.4238C88.661 66.4238 84.6826 70.1385 84.6826 75.269C84.6826 80.3538 88.661 84.1141 93.5353 84.1141C98.4096 84.1141 102.388 80.369 102.388 75.269C102.388 70.1385 98.4096 66.4238 93.5353 66.4238ZM93.5353 80.6278C90.8628 80.6278 88.5547 78.4203 88.5547 75.269C88.5547 72.0872 90.8628 69.9101 93.5353 69.9101C96.2078 69.9101 98.5159 72.0872 98.5159 75.269C98.5159 78.4203 96.2078 80.6278 93.5353 80.6278Z" fill="#0E0E0E"/>
<path d="M123.904 57.3652H127.716V84.1138H123.904V57.3652Z" fill="#0E0E0E"/>
<path d="M139.483 80.6278C137.509 80.6278 136.112 79.7296 135.201 77.9484L147 73.0615L146.605 72.0567C145.876 70.0776 143.629 66.4238 139.058 66.4238C134.518 66.4238 130.737 70.0015 130.737 75.269C130.737 80.232 134.472 84.1141 139.483 84.1141C143.522 84.1141 145.861 81.6326 146.833 80.2016L143.826 78.192C142.824 79.6535 141.457 80.6278 139.483 80.6278ZM139.21 69.7427C140.774 69.7427 142.11 70.5495 142.55 71.6913L134.579 74.9949C134.579 71.2803 137.205 69.7427 139.21 69.7427Z" fill="#0E0E0E"/>
</g>
<defs>
<clipPath id="clip0">
<rect width="111" height="35" fill="white" transform="translate(36 57)"/>
</clipPath>
</defs>
</svg>
