<svg width="183" height="150" viewBox="0 0 183 150" fill="none" xmlns="http://www.w3.org/2000/svg">
<path d="M106.79 44C112.112 44 117.436 44 122.761 44C122.763 45.2094 122.756 46.4187 122.766 47.6307C121.413 47.6904 120.032 47.8435 118.784 48.4144C117.521 48.988 116.462 50.0286 115.916 51.3184C109.445 66.669 102.976 82.0248 96.509 97.3779C96.3984 97.6297 96.3084 97.8918 96.1772 98.1357C93.8623 98.1072 91.5473 98.1305 89.2298 98.1227C88.2086 96.0751 87.2029 94.0171 86.1714 91.9747C84.9908 95.1668 83.8024 98.3563 82.6218 101.548C90.2586 101.548 97.8955 101.548 105.535 101.548C106.934 101.567 108.375 101.509 109.681 100.957C111.855 100.074 113.586 98.3719 114.993 96.5267C116.693 94.2896 117.984 91.7723 119.134 89.2109C120.423 89.2005 121.711 89.216 123 89.2134C120.556 94.4817 118.1 99.7421 115.633 105C98.0343 105 80.4354 105 62.8365 105C63.2661 103.871 63.6725 102.732 64.1329 101.616C64.1612 101.502 64.3027 101.53 64.3901 101.52C66.5868 101.504 68.7989 101.416 70.9544 100.957C72.0758 100.692 73.2359 100.336 74.1001 99.5293C74.5554 99.0907 74.6995 98.4471 74.8512 97.8554C76.9296 92.2446 79.0105 86.6338 81.0914 81.0204C76.6981 71.5713 72.2868 62.1248 67.8883 52.6757C67.5334 51.8505 67.0678 51.0304 66.3321 50.4932C64.8094 49.3435 62.834 49.1982 61 49.1229C61 47.7708 61 46.4161 61 45.0614C67.1784 45.0588 73.3568 45.0588 79.5378 45.0614C79.5378 46.4161 79.5403 47.7708 79.5378 49.1255C78.7327 49.1774 77.8787 49.1644 77.1482 49.5667C76.7855 49.738 76.5746 50.174 76.6672 50.5684C76.7804 51.2146 77.2871 51.6766 77.5443 52.2605C80.1525 57.931 82.7633 63.6015 85.3792 69.2694C86.691 65.5686 88.0028 61.8705 89.3198 58.1723C89.5127 57.6585 89.5821 57.0642 89.3609 56.5478C89.1886 56.1403 88.7951 55.8886 88.4067 55.7173C87.653 55.4033 86.8248 55.4059 86.0274 55.3488C86.4338 54.2069 86.8453 53.0624 87.2672 51.9257C87.3649 51.8634 87.5012 51.9101 87.6144 51.8946C93.8828 51.8998 100.154 51.8946 106.425 51.8972C105.993 53.0442 105.561 54.1939 105.131 55.3436C103.621 55.4137 102.065 55.4526 100.648 56.0469C99.9995 56.322 99.3848 56.7398 99.0015 57.3471C98.734 57.7909 98.5694 58.2865 98.3919 58.7718C95.7734 65.9813 93.1292 73.1777 90.539 80.3976C91.9743 83.6701 93.4687 86.9141 94.9323 90.1711C100.246 77.5091 105.561 64.8446 110.88 52.1852C111.237 51.4248 111.821 50.7293 111.868 49.8522C111.911 49.167 111.407 48.5753 110.823 48.295C109.565 47.7085 108.151 47.68 106.79 47.6307C106.788 46.4213 106.788 45.212 106.79 44Z" fill="#0E0E0E"/>
</svg>
