<svg width="183" height="150" viewBox="0 0 183 150" fill="none" xmlns="http://www.w3.org/2000/svg">
<path d="M30.9357 79.544C30.6379 79.6412 30.34 79.7385 30.0421 79.7385C29.645 79.7385 29.2479 79.6412 28.95 79.3495C28.6521 79.0578 28.5529 78.6689 28.5529 77.9883V69.9179H32.2264V67.1953H28.5529V61.264L24.6807 62.917V67.1953H22V69.8206H24.6807V78.3772C24.6807 79.7385 25.0779 80.808 25.9714 81.5859C26.865 82.3638 28.0564 82.6555 29.5457 82.6555C30.1414 82.6555 30.7371 82.5583 31.3329 82.461C31.8293 82.3638 32.3257 82.1693 32.8221 81.9749L31.73 79.1551C31.5314 79.3495 31.2336 79.4468 30.9357 79.544ZM44.935 72.057L44.1407 74.0017C43.9421 74.6823 43.6443 75.2657 43.4457 75.7519C43.2471 76.3353 43.0486 76.8215 42.9493 77.2104C42.7507 77.6966 42.6514 77.9883 42.5521 78.1827H42.4529C42.3536 77.9883 42.2543 77.6966 42.0557 77.2104C41.8571 76.7242 41.7579 76.2381 41.46 75.7519C41.2614 75.1685 40.9636 74.5851 40.765 74.0017L39.9707 72.057C39.375 70.5985 38.7793 68.9455 38.0843 67.1953H34.1129L40.6657 82.3638L37.985 88.684H41.8571L50.495 67.1953H46.8214C46.1264 68.9455 45.5307 70.5013 44.935 72.057ZM67.6714 68.9455C67.0757 68.2649 66.2814 67.6815 65.3879 67.3898C64.4943 67.0008 63.5014 66.8064 62.5086 66.8064C61.4164 66.8064 60.225 67.0008 59.2321 67.5842C58.4379 68.0704 57.7429 68.6538 57.2464 69.4317V67.1953H53.5729V88.684H57.445V80.4191C57.9414 81.0997 58.6364 81.5859 59.3314 81.9749C60.3243 82.461 61.4164 82.7527 62.5086 82.6555C63.5014 82.6555 64.4943 82.461 65.3879 82.0721C66.2814 81.6832 67.0757 81.197 67.6714 80.5163C68.3664 79.8357 68.8629 78.9606 69.1607 77.9883C69.5579 76.9187 69.7564 75.8491 69.7564 74.6823C69.7564 73.5155 69.5579 72.4459 69.1607 71.3764C68.8629 70.5013 68.3664 69.6262 67.6714 68.9455ZM65.5864 76.8215C65.3879 77.4049 65.09 77.9883 64.7921 78.4744C64.395 78.9606 63.9979 79.2523 63.5014 79.544C63.005 79.8357 62.4093 79.9329 61.8136 79.9329C61.3171 79.9329 60.8207 79.8357 60.3243 79.7385C59.8279 79.544 59.3314 79.3495 58.9343 78.9606C58.5371 78.5717 58.14 78.0855 57.9414 77.5993C57.6436 76.9187 57.5443 76.2381 57.5443 75.5574V74.0989C57.5443 73.4183 57.6436 72.7376 57.9414 72.057C58.14 71.5708 58.5371 71.0847 58.9343 70.6957C59.3314 70.3068 59.8279 70.1123 60.3243 69.9179C60.8207 69.7234 61.3171 69.7234 61.8136 69.7234C62.4093 69.7234 63.005 69.8206 63.5014 70.1123C63.9979 70.404 64.4943 70.6957 64.7921 71.1819C65.1893 71.6681 65.4871 72.2515 65.5864 72.8349C65.9836 74.0989 65.9836 75.4602 65.5864 76.8215ZM86.9329 68.9455C86.2379 68.2649 85.3443 67.6815 84.3514 67.2925C82.1671 66.5147 79.7843 66.5147 77.6 67.2925C76.6071 67.6815 75.8129 68.1676 75.1179 68.9455C74.4229 69.6262 73.8271 70.5013 73.5293 71.4736C73.1321 72.5432 72.9336 73.6127 72.9336 74.6823C72.9336 75.7519 73.1321 76.9187 73.5293 77.891C73.9264 78.8634 74.4229 79.6412 75.1179 80.4191C75.8129 81.0997 76.7064 81.6832 77.6 82.0721C79.7843 82.85 82.1671 82.85 84.3514 82.0721C85.3443 81.6832 86.1386 81.197 86.9329 80.4191C87.6279 79.7385 88.2236 78.8634 88.5214 77.891C88.9186 76.8215 89.1171 75.7519 89.1171 74.6823C89.1171 73.6127 88.9186 72.4459 88.5214 71.4736C88.2236 70.5985 87.6279 69.7234 86.9329 68.9455ZM84.9471 76.7242C84.7486 77.3076 84.55 77.891 84.1529 78.3772C83.855 78.8634 83.3586 79.2523 82.8621 79.4468C82.2664 79.7385 81.6707 79.8357 81.075 79.8357C80.4793 79.8357 79.7843 79.7385 79.2879 79.4468C78.7914 79.1551 78.3943 78.7661 77.9971 78.3772C77.6 77.891 77.4014 77.3076 77.2029 76.7242C76.905 75.363 76.905 74.0017 77.2029 72.6404C77.4014 72.057 77.6 71.4736 77.9971 70.9874C78.295 70.5013 78.7914 70.1123 79.2879 69.9179C79.8836 69.6262 80.4793 69.5289 81.075 69.5289C82.2664 69.5289 83.4579 70.1123 84.1529 71.0847C84.55 71.5708 84.7486 72.1542 84.9471 72.7376C85.245 74.0017 85.245 75.4602 84.9471 76.7242ZM93.1879 82.2666H97.06V60H93.1879V82.2666ZM115.13 68.9455C114.435 68.2649 113.541 67.6815 112.549 67.2925C110.364 66.5147 107.981 66.5147 105.797 67.2925C104.804 67.6815 104.01 68.1676 103.315 68.9455C102.62 69.6262 102.024 70.5013 101.726 71.4736C101.329 72.5432 101.131 73.6127 101.131 74.6823C101.131 75.7519 101.329 76.9187 101.726 77.891C102.124 78.8634 102.62 79.6412 103.315 80.4191C104.01 81.0997 104.904 81.6832 105.797 82.0721C107.981 82.85 110.364 82.85 112.549 82.0721C113.541 81.6832 114.336 81.197 115.13 80.4191C115.825 79.7385 116.421 78.8634 116.719 77.891C117.116 76.8215 117.314 75.7519 117.314 74.6823C117.314 73.6127 117.116 72.4459 116.719 71.4736C116.321 70.5985 115.825 69.7234 115.13 68.9455ZM113.045 76.7242C112.846 77.3076 112.648 77.891 112.251 78.3772C111.953 78.8634 111.456 79.2523 110.96 79.4468C110.364 79.7385 109.769 79.8357 109.173 79.8357C108.577 79.8357 107.882 79.7385 107.386 79.4468C106.889 79.1551 106.492 78.7661 106.095 78.3772C105.698 77.891 105.499 77.3076 105.301 76.7242C105.003 75.363 105.003 74.0017 105.301 72.6404C105.499 72.057 105.698 71.4736 106.095 70.9874C106.393 70.5013 106.889 70.1123 107.386 69.9179C107.981 69.6262 108.577 69.5289 109.173 69.5289C110.364 69.5289 111.556 70.1123 112.251 71.0847C112.648 71.5708 112.846 72.1542 113.045 72.7376C113.442 74.0017 113.442 75.4602 113.045 76.7242ZM134.689 66.5147C133.994 66.5147 133.399 66.6119 132.803 66.8064C132.306 67.0008 131.81 67.2925 131.413 67.5842C130.916 67.3898 130.321 67.1953 129.725 67.0008C129.03 66.8064 128.335 66.8064 127.739 66.8064C126.846 66.8064 126.051 66.9036 125.257 67.1953C124.463 67.3898 123.768 67.7787 123.073 68.2649C122.477 68.751 121.881 69.3345 121.584 70.0151C121.186 70.793 120.988 71.5708 120.988 72.4459C120.988 74.0017 121.683 75.3629 122.874 76.3353C122.179 76.627 121.683 77.0159 121.186 77.5021C120.789 77.9883 120.591 78.5717 120.591 79.1551C120.591 79.6412 120.69 80.1274 120.988 80.5163C121.286 81.0025 121.782 81.3915 122.279 81.5859C121.584 81.8776 121.087 82.2666 120.591 82.85C120.194 83.4334 119.896 84.2112 119.896 84.8919C119.896 85.5725 120.094 86.2531 120.491 86.7393C120.889 87.3227 121.484 87.7116 122.08 88.0034C122.874 88.3923 123.669 88.5868 124.463 88.7812C126.548 89.0729 128.633 89.0729 130.718 88.7812C131.611 88.5868 132.505 88.2951 133.399 87.9061C134.094 87.5172 134.689 87.031 135.186 86.3504C135.682 85.6697 135.881 84.8919 135.881 84.0168C135.881 83.3361 135.682 82.6555 135.384 82.0721C134.987 81.5859 134.491 81.0997 133.895 80.808C133.2 80.5163 132.505 80.2246 131.711 80.1274C130.817 79.9329 129.924 79.8357 129.03 79.8357C128.236 79.7385 127.441 79.7385 126.846 79.6412C126.349 79.6412 125.754 79.544 125.257 79.4468C124.959 79.4468 124.562 79.2523 124.264 79.0578C124.066 78.9606 123.966 78.6689 123.966 78.3772C123.966 77.9883 124.165 77.6966 124.463 77.5021C124.761 77.3076 125.059 77.3076 125.356 77.2104C125.654 77.2104 125.952 77.3076 126.25 77.3076C126.746 77.4049 127.243 77.4049 127.839 77.4049C128.732 77.4049 129.626 77.3076 130.42 77.0159C131.214 76.8215 131.909 76.4325 132.604 75.9464C133.2 75.4602 133.696 74.8768 134.094 74.2934C134.491 73.6127 134.689 72.8349 134.689 71.9598C134.689 71.3764 134.59 70.793 134.391 70.2096C134.193 69.7234 133.895 69.2372 133.498 68.8483C133.597 68.751 133.796 68.6538 133.994 68.5566C134.193 68.4593 134.491 68.4593 134.789 68.4593C134.987 68.4593 135.186 68.4593 135.384 68.5566C135.583 68.6538 135.781 68.751 135.98 68.8483L136.675 66.5147C136.377 66.4174 136.079 66.3202 135.781 66.223C135.384 66.5147 135.086 66.4174 134.689 66.5147ZM124.661 82.3638C125.158 82.461 125.654 82.5583 126.151 82.5583C126.746 82.6555 127.441 82.6555 128.236 82.6555C129.328 82.6555 130.42 82.85 131.413 83.0444C132.009 83.1417 132.406 83.7251 132.406 84.3085C132.406 84.6974 132.306 85.0863 132.009 85.378C131.711 85.6697 131.413 85.9614 131.016 86.0587C130.519 86.2531 130.023 86.4476 129.526 86.4476C128.931 86.5448 128.335 86.5448 127.64 86.5448C126.548 86.5448 125.456 86.4476 124.463 86.0587C123.768 85.8642 123.271 85.1836 123.271 84.4057C123.271 83.9195 123.371 83.5306 123.569 83.1417C123.867 82.85 124.264 82.461 124.661 82.3638ZM130.023 74.5851C129.427 75.0712 128.633 75.363 127.739 75.363C126.945 75.363 126.151 75.1685 125.555 74.5851C124.959 74.0989 124.661 73.321 124.661 72.3487C124.661 71.3764 124.959 70.5985 125.555 70.0151C126.151 69.5289 126.945 69.2372 127.739 69.2372C128.534 69.2372 129.328 69.5289 130.023 70.0151C130.619 70.5013 130.916 71.2791 130.916 72.3487C130.916 73.4183 130.619 74.0989 130.023 74.5851ZM148.291 72.057L147.596 74.0017C147.299 74.6823 147.1 75.2657 146.901 75.7519C146.703 76.3353 146.504 76.8215 146.405 77.2104C146.206 77.6966 146.107 77.9883 146.008 78.1827H145.909C145.809 77.9883 145.71 77.6966 145.511 77.2104C145.313 76.7242 145.214 76.2381 144.916 75.7519L144.221 74.0017L143.426 72.057C142.831 70.5985 142.235 68.9455 141.54 67.1953H137.569L143.824 82.3638L141.242 88.684H145.015L153.653 67.1953H149.979C149.582 68.9455 148.887 70.5013 148.291 72.057ZM158.518 77.891C157.128 77.891 156.036 78.9606 156.036 80.3219C156.036 81.6832 157.128 82.7527 158.518 82.7527C159.908 82.7527 161 81.6832 161 80.3219C161 79.0578 159.908 77.891 158.518 77.891Z" fill="#0E0E0E"/>
</svg>
