<svg width="209" height="209" viewBox="0 0 209 209" fill="none" xmlns="http://www.w3.org/2000/svg">
<path fill-rule="evenodd" clip-rule="evenodd" d="M111.51 94.3173H121.923L124.043 99.9706H121.939L120.492 95.8907H112.725L111.278 99.9706H109.361L111.51 94.3173ZM115.469 81.785H118.026L124.842 99.9706H126.816L119.332 79.8849H114.145L106.575 99.9706H108.565L115.469 81.785ZM84.9684 89.9709C84.9684 96.2331 89.617 100.397 95.3997 100.397C101.638 100.397 104.302 96.1469 104.954 93.3712L103.212 92.8746C103.05 93.4104 101.333 98.5592 95.418 98.5592C90.0982 98.5592 87.0494 95.3863 87.0494 89.8559C87.0494 85.5774 90.1242 81.1525 95.2723 81.1525C100.899 81.1525 102.673 85.3369 103.11 86.7326L104.7 86.2308C104.047 83.3427 101.383 79.4589 95.3451 79.4589C89.7314 79.4589 84.9684 83.7087 84.9684 89.9709ZM117.509 82.5325L121.645 93.5698H111.793L115.984 82.5325H117.509V82.5325ZM119.077 91.8109L116.668 84.8691L114.202 91.8109H119.077ZM99.1041 122.542L99.8662 122.537V105.498H97.9855V117.861L90.3505 105.498H84.8409V125.835H86.6514V107.124H89.0161L99.1041 122.542ZM95.3451 83.821C98.8881 83.821 100.165 86.1733 100.478 87.5611L102.405 86.9522C102.046 85.7264 100.504 81.8948 95.2749 81.8948C91.6512 81.8948 87.7986 84.6835 87.7986 89.8507C87.7986 96.7741 92.5747 97.8091 95.4206 97.8091C100.821 97.8091 102.361 93.1124 102.496 92.6681L100.678 92.1506C100.282 93.596 98.8907 95.9195 95.4049 95.9195C92.4004 95.9195 89.6222 93.7371 89.6222 89.9709C89.617 85.7473 92.6501 83.821 95.3451 83.821ZM89.3464 112.469L97.7279 125.835H102.522V105.498H100.615V123.276L98.7034 123.289L88.6128 107.872H87.398V125.835H89.3464V112.469ZM120.711 112.469V125.835H122.612V107.874H121.398L111.307 123.292L109.395 123.279V105.498H107.535V125.835H112.329L120.711 112.469ZM125.216 125.835V105.498H119.704L112.069 117.861V105.498H110.142V122.537L110.904 122.542L120.992 107.127H123.356V125.838L125.216 125.835ZM72.7759 102.176H72.7915C73.1609 102.179 73.5277 102.109 73.871 101.97C74.5318 101.706 75.0599 101.183 75.333 100.522C75.4787 100.174 75.5515 99.8033 75.5463 99.4269C75.5489 99.1917 75.5255 98.9539 75.4813 98.7213C75.4423 98.5226 75.3772 98.3266 75.2888 98.1437C75.2055 97.9712 75.1041 97.8065 74.987 97.6575C74.8648 97.5059 74.7321 97.3622 74.589 97.2289L73.8294 97.979C74.0089 98.1672 74.165 98.3815 74.2899 98.6115C74.4095 98.8519 74.4668 99.1185 74.459 99.3877C74.4616 99.6047 74.4147 99.8216 74.3263 100.018C74.2404 100.206 74.1156 100.37 73.9621 100.509C73.8034 100.648 73.6213 100.755 73.4262 100.828C73.2181 100.906 72.997 100.943 72.7759 100.943H72.7603C72.5392 100.945 72.3206 100.906 72.1125 100.828C71.9174 100.755 71.7353 100.645 71.5793 100.506C71.2619 100.221 71.085 99.8164 71.0902 99.3904C71.085 99.1368 71.1422 98.8859 71.2515 98.6585C71.3686 98.4259 71.5194 98.2116 71.6963 98.0182L70.8301 97.2681C70.7078 97.3909 70.5934 97.5242 70.4919 97.6654C70.3879 97.8117 70.302 97.9685 70.2318 98.1332C70.1563 98.3135 70.0991 98.5043 70.0627 98.6951C70.0211 98.9199 70.0003 99.1499 70.0003 99.3799C69.995 99.7693 70.0705 100.154 70.2188 100.512C70.3566 100.844 70.5595 101.141 70.8171 101.392C71.072 101.638 71.3712 101.834 71.6989 101.967C72.0423 102.109 72.4091 102.179 72.7759 102.176ZM75.3382 94.989L70.2734 92.0226L70.4113 90.9458L76.0614 89.3541L75.9053 90.5772L74.6488 90.9092L74.3601 93.1569L75.4917 93.7946L75.3382 94.989ZM73.5615 91.1941L71.7458 91.6802L73.3794 92.608L73.5615 91.1941ZM77.1774 85.9459L74.0219 84.66L78.1581 83.544L78.5379 82.6162L73.5719 80.5932L73.1323 81.67L76.1914 82.9141L72.1854 83.9935L71.7718 84.9998L76.7377 87.0227L77.1774 85.9459ZM77.8537 73.9964L80.4915 75.9828L76.3423 76.0011L75.6868 76.8688L79.9686 80.094L80.6684 79.1636L77.9447 77.1145L82.2292 77.0936L82.8327 76.2938L78.5561 73.066L77.8537 73.9964ZM84.4949 74.5113L82.9523 68.8529L83.8056 68.1785L88.9562 70.9908L87.9885 71.754L86.8595 71.1136L85.0802 72.5171L85.4418 73.7638L84.4949 74.5113ZM84.2478 69.6369L84.7655 71.4403L85.884 70.5569L84.2478 69.6369ZM91.0945 69.8042L88.9146 64.9089L91.183 63.9C91.6356 63.657 92.1663 63.6099 92.6553 63.7668C92.9753 63.887 93.2302 64.1353 93.3603 64.4489L93.3681 64.462C93.4253 64.5874 93.4643 64.7207 93.48 64.8566C93.493 64.9742 93.4904 65.0919 93.4696 65.2095C93.4513 65.3192 93.4175 65.4264 93.3681 65.5257C93.3213 65.625 93.264 65.7165 93.1964 65.8028C93.4904 65.7792 93.7869 65.8263 94.0601 65.9439C94.328 66.0824 94.5361 66.3176 94.6454 66.5999L94.6506 66.613C94.7468 66.8142 94.791 67.0364 94.7832 67.2585C94.7702 67.465 94.7078 67.6663 94.5985 67.844C94.4737 68.04 94.315 68.2151 94.1303 68.3536C93.9092 68.5209 93.6699 68.6621 93.4175 68.7718L91.0945 69.8042ZM92.4914 66.762L91.2454 67.316L91.7241 68.3929L93.0039 67.8231C93.2042 67.7473 93.3785 67.6166 93.506 67.4441C93.6022 67.2977 93.6126 67.107 93.5294 66.9528L93.5242 66.9397C93.4617 66.7829 93.3239 66.6705 93.1626 66.6339C92.9311 66.6051 92.697 66.6496 92.4914 66.762ZM90.8474 66.4222L91.8411 65.9805C92.0414 65.9021 92.2183 65.774 92.3536 65.6067C92.4576 65.463 92.4706 65.2748 92.3874 65.118L92.3822 65.1049C92.325 64.9533 92.1923 64.8436 92.0336 64.8122C91.8333 64.7861 91.6304 64.8227 91.4509 64.9167L90.387 65.3898L90.8474 66.4222ZM99.0312 67.0103L97.8424 61.7856L96.6926 62.047L97.8814 67.2716L99.0312 67.0103ZM105.688 64.1483C105.605 63.9811 105.488 63.8347 105.339 63.7223C105.173 63.5943 104.986 63.4949 104.788 63.4218C104.549 63.3355 104.302 63.2649 104.054 63.2101C103.82 63.1578 103.628 63.1107 103.477 63.0715C103.352 63.0428 103.23 62.9983 103.115 62.9408C103.04 62.9043 102.975 62.8468 102.928 62.7762C102.892 62.7082 102.871 62.6298 102.868 62.5514V62.5384C102.863 62.4051 102.923 62.2796 103.027 62.1986C103.175 62.0914 103.355 62.0392 103.537 62.0444C103.773 62.0365 104.01 62.0757 104.231 62.1568C104.484 62.2509 104.723 62.3711 104.952 62.5148L105.527 61.6027C105.246 61.3962 104.931 61.2368 104.598 61.1348C104.244 61.0277 103.875 60.9859 103.508 61.0042C103.251 61.012 102.998 61.0617 102.756 61.1505C102.543 61.2289 102.348 61.3492 102.179 61.5034C102.023 61.6497 101.898 61.8301 101.815 62.0287C101.729 62.2404 101.692 62.4678 101.705 62.6952V62.7108C101.708 62.9408 101.76 63.1656 101.859 63.3721C101.947 63.5446 102.077 63.6936 102.233 63.806C102.408 63.9288 102.603 64.0229 102.806 64.0856C103.05 64.164 103.3 64.2267 103.552 64.2764C103.781 64.3235 103.966 64.3705 104.106 64.4149C104.223 64.4489 104.335 64.496 104.442 64.5535C104.512 64.59 104.569 64.6423 104.611 64.7103C104.642 64.773 104.661 64.8409 104.661 64.9115V64.9272C104.671 65.0788 104.598 65.2225 104.473 65.3062C104.304 65.4107 104.109 65.4656 103.909 65.463C103.617 65.4787 103.326 65.429 103.055 65.3219C102.78 65.2069 102.52 65.0579 102.283 64.8775L101.62 65.74C101.942 66.0118 102.317 66.2157 102.717 66.3438C103.108 66.4666 103.519 66.5215 103.927 66.5058C104.195 66.498 104.463 66.4509 104.718 66.3621C104.939 66.2863 105.144 66.1687 105.321 66.0171C105.488 65.8707 105.618 65.6851 105.704 65.4813C105.795 65.2539 105.834 65.0108 105.821 64.7678V64.7521C105.818 64.5378 105.774 64.3339 105.688 64.1483ZM111.088 64.0098L108.755 63.6596L108.589 64.7652L110.922 65.1154L111.088 64.0098ZM116.104 62.8258L114.977 62.473L113.37 67.5852L114.496 67.9381L116.104 62.8258ZM119.998 66.545L120.609 70.7843L121.486 71.2704L124.09 66.5868L123.073 66.0223L121.47 68.9051L120.88 64.8017L119.93 64.2738L117.324 68.9574L118.341 69.5219L119.998 66.545ZM124.675 73.8344L126.088 72.3133L127.961 74.0539L128.687 73.2751L126.814 71.5344L127.599 70.6876L129.727 72.6609L130.453 71.882L127.461 69.1064L123.812 73.032L124.675 73.8344ZM129.191 77.9221C129.1 78.5389 129.259 79.1688 129.633 79.668C129.813 79.945 130.037 80.1907 130.297 80.3946C130.528 80.5749 130.799 80.703 131.085 80.7631C131.379 80.8206 131.683 80.8128 131.975 80.737C132.323 80.6455 132.656 80.4913 132.953 80.2848L135.473 78.6121L134.82 77.6294L132.263 79.3282C131.988 79.5425 131.639 79.6445 131.29 79.6079C130.981 79.5452 130.713 79.3518 130.552 79.0773C130.362 78.8238 130.292 78.4971 130.359 78.1861C130.468 77.8437 130.705 77.5588 131.015 77.3837L133.541 75.7058L132.888 74.723L130.336 76.4193C129.675 76.8584 129.295 77.3576 129.191 77.9221ZM134.872 83.5179C134.81 83.7217 134.779 83.9334 134.781 84.1477C134.781 84.4039 134.797 84.66 134.826 84.9161C134.849 85.1461 134.862 85.3369 134.862 85.4859C134.865 85.6088 134.854 85.729 134.831 85.8492C134.818 85.9276 134.784 85.9982 134.732 86.0583C134.683 86.108 134.623 86.1445 134.555 86.1681L134.54 86.1733C134.399 86.2282 134.24 86.2047 134.121 86.1106C133.97 85.9825 133.858 85.8126 133.798 85.6218C133.694 85.35 133.652 85.0573 133.673 84.7672C133.699 84.4692 133.762 84.1765 133.861 83.8968L132.838 83.5283C132.677 83.9177 132.596 84.3359 132.599 84.7567C132.602 85.167 132.672 85.5748 132.815 85.959C132.903 86.2125 133.031 86.4529 133.192 86.6673C133.333 86.8554 133.507 87.0149 133.707 87.1377C133.9 87.2527 134.113 87.3207 134.334 87.3364C134.579 87.3546 134.82 87.3181 135.049 87.2292L135.062 87.224C135.26 87.1586 135.44 87.0515 135.593 86.9129C135.726 86.7849 135.83 86.6254 135.892 86.4529C135.962 86.2543 136.001 86.0478 136.009 85.8387C136.02 85.5826 136.012 85.3291 135.988 85.0756C135.968 84.8377 135.952 84.6417 135.944 84.4823C135.934 84.3542 135.939 84.2235 135.957 84.0981C135.968 84.0144 136.004 83.936 136.059 83.8707C136.113 83.8132 136.178 83.7714 136.254 83.7452L136.269 83.74C136.394 83.6956 136.532 83.7113 136.641 83.7871C136.787 83.8968 136.894 84.051 136.946 84.2261C137.026 84.4483 137.06 84.6861 137.05 84.9214C137.037 85.1906 136.995 85.4545 136.928 85.7159L137.973 85.9877C138.085 85.6584 138.14 85.3108 138.137 84.9632C138.132 84.5947 138.062 84.2314 137.932 83.8864C137.846 83.6433 137.721 83.4159 137.565 83.2147C137.424 83.0343 137.25 82.8854 137.052 82.773C136.865 82.6684 136.657 82.6057 136.441 82.5874C136.215 82.5717 135.986 82.6031 135.773 82.6867L135.76 82.692C135.541 82.7625 135.343 82.8827 135.177 83.0396C135.034 83.1676 134.932 83.3349 134.872 83.5179ZM134.675 94.4114L135.715 94.2807L135.356 91.3953L136.475 91.2568L136.787 93.7632L137.828 93.6326L137.515 91.1261L138.595 90.9928L138.951 93.8416L139.992 93.711L139.492 89.7069L134.17 90.3708L134.675 94.4114ZM140 97.2263V99.3172C140.005 99.7118 139.935 100.101 139.797 100.47C139.669 100.804 139.479 101.113 139.235 101.374C138.996 101.625 138.707 101.826 138.39 101.96C138.057 102.098 137.698 102.169 137.336 102.166H137.32C136.959 102.169 136.597 102.098 136.264 101.96C135.944 101.826 135.653 101.625 135.414 101.374C135.169 101.113 134.977 100.807 134.846 100.47C134.706 100.101 134.633 99.7118 134.638 99.3172V97.2263H140ZM138.933 98.405H135.7V99.3172C135.697 99.5419 135.736 99.7641 135.814 99.9758C135.887 100.167 135.999 100.342 136.145 100.485C136.29 100.627 136.462 100.739 136.652 100.815C136.86 100.896 137.081 100.938 137.302 100.932H137.318C137.539 100.935 137.76 100.893 137.968 100.815C138.158 100.742 138.335 100.629 138.481 100.485C138.626 100.342 138.741 100.167 138.814 99.9758C138.894 99.7667 138.936 99.5419 138.933 99.3172V98.405ZM73.4834 114.447C73.5745 114.17 73.5537 113.867 73.4236 113.606C73.3612 113.48 73.2727 113.371 73.1687 113.277C73.0646 113.182 72.9424 113.112 72.8097 113.067C72.6718 113.02 72.5262 113.005 72.3831 113.015H72.3701C72.2244 113.026 72.0839 113.062 71.9539 113.128C71.829 113.19 71.7197 113.279 71.6287 113.384C71.5376 113.491 71.47 113.614 71.4258 113.744C71.2853 114.163 71.4076 114.623 71.7405 114.913C71.8472 115.004 71.9669 115.075 72.0995 115.122C72.2374 115.171 72.3831 115.19 72.5288 115.179H72.5444C72.69 115.171 72.8305 115.13 72.9606 115.062C73.0828 114.996 73.1947 114.91 73.2857 114.805C73.3716 114.701 73.4418 114.578 73.4834 114.447ZM77.3933 126.177C77.4115 126.431 77.4011 126.687 77.3646 126.94L78.3818 127.082C78.452 126.758 78.465 126.423 78.4234 126.094C78.3766 125.746 78.2725 125.409 78.1112 125.098C78.0046 124.878 77.8615 124.677 77.6898 124.505C77.5389 124.35 77.3568 124.228 77.1591 124.144C76.9692 124.066 76.7663 124.029 76.5634 124.034C76.3475 124.042 76.1342 124.099 75.9417 124.201L75.9287 124.207C75.731 124.298 75.5567 124.431 75.4162 124.599C75.3018 124.742 75.2237 124.912 75.1873 125.093C75.1509 125.291 75.1431 125.498 75.1691 125.699C75.1977 125.942 75.2394 126.183 75.294 126.42C75.3408 126.635 75.3746 126.815 75.3928 126.956C75.4084 127.071 75.411 127.186 75.4032 127.301C75.398 127.374 75.3746 127.448 75.333 127.508C75.2914 127.56 75.2394 127.602 75.1769 127.63L75.1639 127.636C75.0364 127.704 74.883 127.698 74.7607 127.623C74.602 127.518 74.4798 127.369 74.4017 127.194C74.2743 126.948 74.204 126.677 74.191 126.399C74.1832 126.115 74.2092 125.832 74.2743 125.555L73.2675 125.32C73.1583 125.707 73.1271 126.109 73.1739 126.507C73.2207 126.893 73.3326 127.27 73.5069 127.617C73.6187 127.847 73.7644 128.059 73.9413 128.245C74.0948 128.407 74.2769 128.54 74.4772 128.632C74.6697 128.718 74.8804 128.76 75.0911 128.752C75.3226 128.741 75.5489 128.681 75.7544 128.574L75.7674 128.569C75.9469 128.485 76.1056 128.365 76.2357 128.216C76.3475 128.08 76.4282 127.921 76.4698 127.748C76.514 127.555 76.5296 127.353 76.514 127.155C76.4958 126.912 76.462 126.671 76.41 126.436C76.3631 126.214 76.3267 126.028 76.3033 125.882C76.2799 125.762 76.2695 125.639 76.2747 125.516C76.2773 125.435 76.3007 125.357 76.3449 125.289C76.3891 125.229 76.449 125.182 76.5166 125.15L76.5296 125.145C76.6415 125.087 76.7741 125.09 76.886 125.15C77.0369 125.236 77.1539 125.372 77.2216 125.532C77.323 125.733 77.3803 125.953 77.3933 126.177ZM82.4139 131.825C82.5153 132.155 82.5543 132.5 82.5257 132.842C82.4971 133.179 82.4008 133.506 82.2422 133.804C82.0783 134.115 81.852 134.389 81.5814 134.611L81.571 134.619C81.3005 134.844 80.9883 135.014 80.6527 135.113C79.9894 135.315 79.2714 135.241 78.6627 134.912C78.3349 134.737 78.0436 134.496 77.8095 134.206C77.5702 133.924 77.3881 133.595 77.2788 133.239C77.1774 132.91 77.1383 132.565 77.1643 132.223C77.193 131.885 77.2892 131.559 77.4479 131.261C77.6118 130.95 77.8381 130.675 78.1086 130.453L78.119 130.443C78.3896 130.215 78.7017 130.048 79.0373 129.949C79.7007 129.748 80.4186 129.821 81.0299 130.15C81.3577 130.325 81.6491 130.566 81.8832 130.856C82.1199 131.143 82.302 131.473 82.4139 131.825ZM81.3707 132.063C81.3135 131.859 81.212 131.669 81.0742 131.504C80.9389 131.337 80.7724 131.201 80.5825 131.104C80.4056 131.015 80.2105 130.963 80.0128 130.952C79.8125 130.942 79.6122 130.971 79.4223 131.033C79.222 131.099 79.0373 131.203 78.876 131.339L78.8656 131.35C78.7017 131.483 78.5639 131.648 78.4598 131.831C78.2595 132.186 78.2075 132.607 78.3167 132.999C78.374 133.205 78.478 133.396 78.6159 133.558C78.7512 133.723 78.9176 133.859 79.1049 133.955C79.2818 134.047 79.4769 134.099 79.6772 134.11C79.8775 134.12 80.0778 134.091 80.2677 134.029C80.468 133.963 80.6527 133.859 80.814 133.723L80.8244 133.712C80.9883 133.579 81.1262 133.414 81.2302 133.231C81.4305 132.879 81.4826 132.458 81.3707 132.063ZM88.1368 136.867C88.0406 136.705 87.9313 136.556 87.8038 136.417C87.6556 136.255 87.4943 136.109 87.3174 135.981C87.0234 135.756 86.6879 135.592 86.3315 135.5C86.0011 135.416 85.6577 135.401 85.3195 135.453C84.6354 135.563 84.0215 135.937 83.6079 136.496L83.6001 136.509C83.3868 136.789 83.2307 137.107 83.1396 137.447C83.0538 137.771 83.0304 138.108 83.0772 138.443C83.124 138.778 83.2359 139.096 83.4076 139.387C83.5897 139.695 83.8316 139.962 84.1177 140.173C84.2972 140.309 84.4871 140.427 84.69 140.526C85.0308 140.688 85.4054 140.769 85.7826 140.759C85.9673 140.753 86.1546 140.735 86.3367 140.701L86.1988 139.698C85.9517 139.726 85.7019 139.721 85.4548 139.687C85.2025 139.64 84.9684 139.533 84.7681 139.371C84.4403 139.13 84.2322 138.759 84.1984 138.352C84.1828 138.153 84.2062 137.954 84.2634 137.763C84.3232 137.56 84.4195 137.371 84.547 137.202L84.5548 137.191C84.6796 137.021 84.8357 136.877 85.0126 136.765C85.1791 136.658 85.3664 136.582 85.5615 136.543C85.9595 136.465 86.3705 136.561 86.6931 136.81C86.8882 136.951 87.0468 137.136 87.1587 137.348C87.268 137.57 87.346 137.808 87.3902 138.051L88.4568 137.821C88.4334 137.656 88.3969 137.494 88.3449 137.337C88.2929 137.17 88.2226 137.016 88.1368 136.867ZM88.7741 142.978L89.7782 143.479L92.0648 138.924L91.0607 138.422L88.7741 142.978ZM97.2545 140.798L97.9439 146.334L96.8149 146.012L96.6796 144.784L94.6063 144.19L93.8441 145.163L92.7438 144.849L96.2556 140.513L97.2545 140.798ZM96.5703 143.723L96.3726 141.948L95.2671 143.351L96.5703 143.723ZM102.67 141.757L101.552 141.689L101.242 146.778L104.9 147L104.962 145.991L102.423 145.837L102.67 141.757ZM114.983 140.252L110.904 141.355L111.174 142.353L112.673 141.948L113.734 145.868L114.816 145.576L113.755 141.655L115.253 141.25L114.983 140.252ZM123.19 140.239C123.255 140.929 123.044 141.619 122.602 142.149C122.116 142.724 121.431 143.093 120.685 143.179C120.341 143.215 119.995 143.184 119.665 143.09C119.342 142.996 119.041 142.837 118.778 142.625C118.505 142.403 118.281 142.128 118.117 141.82L118.109 141.807C117.94 141.498 117.836 141.159 117.805 140.808C117.74 140.118 117.953 139.431 118.396 138.898C118.882 138.323 119.566 137.954 120.313 137.868C120.656 137.831 121.002 137.863 121.333 137.957C121.658 138.051 121.959 138.21 122.22 138.422C122.493 138.644 122.716 138.919 122.88 139.227L122.888 139.24C123.055 139.549 123.159 139.888 123.19 140.239ZM122.05 140.403C122.024 140.194 121.959 139.993 121.858 139.807L121.85 139.794C121.751 139.606 121.619 139.441 121.457 139.303C121.148 139.034 120.745 138.903 120.336 138.934C120.123 138.95 119.917 139.013 119.73 139.115C119.54 139.214 119.374 139.35 119.241 139.52C119.119 139.677 119.03 139.857 118.981 140.048C118.931 140.241 118.918 140.442 118.944 140.641C118.97 140.85 119.036 141.051 119.137 141.237L119.142 141.247C119.241 141.436 119.374 141.6 119.535 141.739C119.845 142.005 120.248 142.139 120.654 142.11C120.867 142.094 121.075 142.032 121.262 141.927C121.45 141.828 121.616 141.692 121.749 141.524C121.874 141.368 121.965 141.187 122.014 140.994C122.066 140.803 122.076 140.602 122.05 140.403ZM126.129 133.284L128.236 135.61L124.358 134.886L123.59 135.581L127.014 139.358L127.836 138.616L125.659 136.214L129.665 136.958L130.372 136.318L126.949 132.541L126.129 133.284ZM128.7 130.409L132.758 133.498L133.437 132.607L129.378 129.515L128.7 130.409ZM136.818 125.197L135.851 125.506C135.921 125.743 135.96 125.992 135.968 126.24C135.965 126.496 135.897 126.747 135.775 126.972C135.684 127.157 135.551 127.322 135.388 127.45C135.234 127.57 135.057 127.659 134.867 127.709C134.675 127.759 134.474 127.772 134.274 127.745C134.063 127.722 133.861 127.659 133.673 127.563L133.66 127.557C133.473 127.463 133.304 127.335 133.161 127.181C133.026 127.035 132.921 126.865 132.849 126.679C132.778 126.496 132.747 126.3 132.758 126.104C132.768 125.9 132.823 125.702 132.916 125.519C133.023 125.302 133.176 125.116 133.369 124.97C133.569 124.823 133.79 124.706 134.022 124.62L133.613 123.611C133.455 123.663 133.304 123.726 133.156 123.802C133.005 123.88 132.864 123.974 132.734 124.084C132.591 124.204 132.464 124.34 132.349 124.489C132.217 124.661 132.099 124.847 132.001 125.043C131.829 125.37 131.725 125.725 131.696 126.094C131.67 126.433 131.712 126.776 131.821 127.097C131.93 127.416 132.099 127.709 132.318 127.965C132.547 128.232 132.828 128.449 133.14 128.605L133.153 128.611C133.465 128.773 133.806 128.872 134.157 128.903C134.833 128.966 135.505 128.752 136.022 128.31C136.295 128.08 136.517 127.795 136.678 127.476C136.782 127.278 136.865 127.069 136.928 126.852C136.98 126.666 137.011 126.473 137.016 126.279C137.021 126.096 137.006 125.916 136.969 125.736C136.933 125.55 136.883 125.37 136.818 125.197ZM138.473 113.245C138.382 113.141 138.27 113.054 138.148 112.989C138.018 112.921 137.877 112.882 137.731 112.874H137.716C137.57 112.864 137.424 112.882 137.289 112.932C137.159 112.979 137.037 113.049 136.933 113.141C136.829 113.232 136.743 113.342 136.68 113.467C136.55 113.729 136.53 114.032 136.623 114.309C136.67 114.442 136.738 114.562 136.829 114.67C136.92 114.777 137.029 114.863 137.154 114.926C137.284 114.991 137.424 115.03 137.57 115.038H137.586C137.731 115.049 137.877 115.03 138.012 114.983C138.145 114.939 138.265 114.866 138.369 114.774C138.473 114.68 138.559 114.57 138.621 114.445C138.819 114.05 138.761 113.574 138.473 113.245Z" fill="black"/>
</svg>
