<svg width="209" height="209" viewBox="0 0 209 209" fill="none" xmlns="http://www.w3.org/2000/svg">
<path d="M35.196 95.3149H33V113.685H35.196V99.3301L41.4441 109.512L47.6922 99.3039V113.685H49.8882V95.3149H47.7707L41.4964 105.576L35.196 95.3149Z" fill="black"/>
<path d="M67.6018 95.3149V113.685H69.7978V95.3149H67.6018Z" fill="black"/>
<path d="M87.8981 95.3149V113.685H90.0941V95.3149H87.8981Z" fill="black"/>
<path d="M116.246 108.988C116.246 109.486 116.142 109.906 115.959 110.273C115.75 110.641 115.514 110.93 115.201 111.166C114.887 111.428 114.521 111.612 114.103 111.717C113.684 111.848 113.266 111.901 112.848 111.901C112.325 111.901 111.854 111.822 111.436 111.664C111.018 111.507 110.626 111.297 110.312 111.035C109.972 110.772 109.685 110.483 109.423 110.142C109.162 109.801 108.979 109.434 108.822 109.066L106.992 110.169C107.201 110.641 107.463 111.113 107.829 111.586C108.168 112.058 108.587 112.452 109.083 112.819C109.554 113.186 110.129 113.475 110.756 113.685C111.384 113.895 112.09 114 112.874 114C113.658 114 114.39 113.895 115.07 113.659C115.75 113.423 116.351 113.081 116.874 112.635C117.371 112.189 117.763 111.638 118.05 111.008C118.338 110.378 118.495 109.644 118.495 108.83C118.495 108.148 118.39 107.57 118.181 107.046C117.972 106.547 117.658 106.101 117.266 105.681C116.874 105.287 116.403 104.92 115.828 104.579C115.253 104.238 114.626 103.896 113.946 103.581C113.318 103.319 112.743 103.03 112.247 102.768C111.724 102.506 111.305 102.243 110.966 101.954C110.6 101.692 110.338 101.377 110.155 101.062C109.946 100.747 109.868 100.354 109.868 99.9075C109.868 99.5663 109.92 99.2251 110.051 98.884C110.181 98.5428 110.39 98.2279 110.652 97.9655C110.913 97.703 111.227 97.4931 111.593 97.3356C111.959 97.1782 112.403 97.0994 112.926 97.0994C113.345 97.0994 113.737 97.1782 114.103 97.2831C114.469 97.3881 114.782 97.5456 115.096 97.7293C115.41 97.913 115.671 98.1229 115.907 98.3329C116.142 98.5691 116.351 98.8052 116.508 99.0152L118.155 97.6768C117.946 97.3881 117.658 97.0732 117.344 96.7583C117.005 96.4434 116.612 96.1547 116.194 95.8923C115.75 95.6298 115.253 95.4199 114.704 95.2624C114.155 95.105 113.554 95 112.926 95C112.037 95 111.279 95.1575 110.626 95.4461C109.972 95.761 109.423 96.1285 109.005 96.6008C108.561 97.0732 108.221 97.6243 108.012 98.2279C107.776 98.8315 107.672 99.4351 107.672 100.039C107.672 100.773 107.802 101.43 108.116 101.981C108.404 102.532 108.796 103.004 109.266 103.424C109.737 103.844 110.286 104.211 110.887 104.526C111.488 104.841 112.09 105.156 112.691 105.419C113.188 105.681 113.658 105.917 114.103 106.127C114.521 106.337 114.913 106.599 115.227 106.862C115.541 107.124 115.776 107.439 115.959 107.78C116.142 108.122 116.246 108.515 116.246 108.988Z" fill="black"/>
<path d="M138.546 97.4144V113.685H140.742V97.4144H145.997V95.3149H133.291V97.4144H138.546Z" fill="black"/>
<path d="M164.706 106.626L167.843 98.4641L170.981 106.626H164.706ZM166.824 95.3149L159.635 113.685H161.987L163.896 108.725H171.791L173.699 113.685H176L168.863 95.3149H166.824Z" fill="black"/>
</svg>
