<svg width="183" height="150" viewBox="0 0 183 150" fill="none" xmlns="http://www.w3.org/2000/svg">
<g clip-path="url(#clip0)">
<path d="M71.4428 85.5992C69.8347 85.5992 68.2669 85.5992 66.6174 85.5992C66.6174 85.3552 66.6174 85.1277 66.6174 84.9014C66.6174 81.5287 66.6245 78.1573 66.6151 74.7846C66.6079 72.658 65.2924 71.0772 63.3693 70.6646C60.7666 70.1071 58.576 72.44 58.5854 74.6231C58.5997 78.0264 58.5902 81.4309 58.5902 84.8342C58.5902 85.0652 58.5902 85.2951 58.5902 85.5603C56.9561 85.5603 55.3895 85.5603 53.7388 85.5603C53.7388 85.2998 53.7388 85.0723 53.7388 84.8448C53.7388 81.4721 53.7506 78.0995 53.7341 74.7281C53.7234 72.5095 52.2527 70.8403 50.1521 70.6092C47.8785 70.3593 45.7648 72.2561 45.7577 74.5807C45.7459 77.9922 45.7542 81.4038 45.7542 84.8153C45.7542 85.0463 45.7542 85.2774 45.7542 85.5509C44.1675 85.5509 42.6399 85.5509 41.0745 85.5509C41.0544 85.4436 41.0153 85.3352 41.0153 85.2267C41.0188 81.5016 40.962 77.7753 41.0473 74.0526C41.1598 69.1251 45.8205 65.2279 50.7406 65.8256C52.6624 66.059 54.3273 66.8122 55.7613 68.0948C55.9058 68.2233 56.0573 68.3435 56.2219 68.4815C57.4214 67.3238 58.7737 66.4951 60.3711 66.0672C65.4428 64.7068 70.6447 68.1266 71.3457 73.3029C71.4191 73.8451 71.4653 74.3945 71.4664 74.9414C71.4771 78.294 71.4724 81.6466 71.4712 84.9992C71.47 85.1878 71.4534 85.3788 71.4428 85.5992Z" fill="black"/>
<path d="M138.409 78.7255C139.728 79.3632 141.018 79.9868 142.356 80.634C141.662 81.9449 140.73 83.0082 139.582 83.8829C133.561 88.4638 124.898 85.2067 123.426 77.8154C122.095 71.1327 127.772 65.0275 134.544 65.8574C139.296 66.4397 142.903 70.5043 142.995 75.387C143.01 76.1097 142.998 76.8335 142.998 77.6174C138.085 77.6174 133.207 77.6174 128.252 77.6174C128.823 79.5707 130.037 80.812 131.882 81.3861C134.303 82.1394 136.142 81.3661 138.409 78.7255ZM137.997 73.6365C137.518 71.6631 135.365 70.1141 133.074 70.1448C130.638 70.1778 128.704 72.0569 128.39 73.6365C131.596 73.6365 134.794 73.6365 137.997 73.6365Z" fill="black"/>
<path d="M84.0838 86C78.3656 86 73.9666 81.432 73.9879 75.5155C74.0068 70.3027 78.7362 65.7701 84.1477 65.7796C89.7357 65.7902 94.2875 70.3617 94.2875 75.9658C94.2887 81.4898 89.7013 86 84.0838 86ZM89.4728 75.9705C89.5142 73.0671 87.1152 70.6222 84.1927 70.5904C81.3117 70.5585 78.8606 72.8985 78.8014 75.7359C78.7386 78.749 81.0548 81.1562 84.0802 81.2234C86.992 81.2882 89.4313 78.9117 89.4728 75.9705Z" fill="black"/>
<path d="M101.706 85.6084C100.106 85.6084 98.5535 85.6084 96.9502 85.6084C96.9502 75.9066 96.9502 66.2202 96.9502 56.502C98.5251 56.502 100.093 56.502 101.706 56.502C101.706 66.1849 101.706 75.8666 101.706 85.6084Z" fill="black"/>
<path d="M106.24 56.488C107.849 56.488 109.401 56.488 111.001 56.488C111.001 66.191 111.001 75.8798 111.001 85.6004C109.405 85.6004 107.84 85.6004 106.24 85.6004C106.24 75.8939 106.24 66.2181 106.24 56.488Z" fill="black"/>
<path d="M120.259 85.5992C120.14 85.6098 120.028 85.6298 119.914 85.6298C118.46 85.6322 117.006 85.631 115.509 85.631C115.509 79.1687 115.509 72.7535 115.509 66.2947C117.075 66.2947 118.64 66.2947 120.258 66.2947C120.259 72.7075 120.259 79.1357 120.259 85.5992Z" fill="black"/>
<path d="M114.733 59.0697C114.731 57.3816 116.141 56.0071 117.882 56C119.655 55.993 121.041 57.3993 121.032 59.1958C121.022 60.8686 119.574 62.2891 117.877 62.2891C116.129 62.2903 114.736 60.8615 114.733 59.0697Z" fill="black"/>
</g>
<defs>
<clipPath id="clip0">
<rect width="102" height="30" fill="white" transform="translate(41 56)"/>
</clipPath>
</defs>
</svg>
